<mxfile host="Electron" modified="2023-09-28T22:36:36.837Z" agent="Mozilla/5.0 (Windows NT 10.0; Win64; x64) AppleWebKit/537.36 (KHTML, like Gecko) draw.io/21.7.5 Chrome/114.0.5735.289 Electron/25.8.1 Safari/537.36" etag="mh8c1gZZVLbKKzV1nE6K" version="21.7.5" type="device" pages="2">
  <diagram name="PÃ¡gina-1" id="-4RB7Xz1dDjmr4r7Mr2Z">
    <mxGraphModel dx="2245" dy="1989" grid="1" gridSize="7" guides="1" tooltips="1" connect="1" arrows="1" fold="1" page="1" pageScale="1" pageWidth="827" pageHeight="1169" math="0" shadow="0">
      <root>
        <mxCell id="0" />
        <mxCell id="1" parent="0" />
        <mxCell id="Kc8zFnVL3nJpbGEGr2F9-2" value="" style="endArrow=classic;html=1;rounded=0;" parent="1" edge="1">
          <mxGeometry width="50" height="50" relative="1" as="geometry">
            <mxPoint x="179.5" y="90" as="sourcePoint" />
            <mxPoint x="179.5" y="130" as="targetPoint" />
          </mxGeometry>
        </mxCell>
        <mxCell id="Kc8zFnVL3nJpbGEGr2F9-3" value="Leer Eddad" style="shape=parallelogram;perimeter=parallelogramPerimeter;whiteSpace=wrap;html=1;fixedSize=1;" parent="1" vertex="1">
          <mxGeometry x="120" y="130" width="130" height="60" as="geometry" />
        </mxCell>
        <mxCell id="Kc8zFnVL3nJpbGEGr2F9-4" value="edad&amp;gt;= 18" style="rhombus;whiteSpace=wrap;html=1;" parent="1" vertex="1">
          <mxGeometry x="120" y="270" width="120" height="90" as="geometry" />
        </mxCell>
        <mxCell id="Kc8zFnVL3nJpbGEGr2F9-5" value="" style="endArrow=classic;html=1;rounded=0;" parent="1" target="Kc8zFnVL3nJpbGEGr2F9-4" edge="1">
          <mxGeometry width="50" height="50" relative="1" as="geometry">
            <mxPoint x="180" y="200" as="sourcePoint" />
            <mxPoint x="230" y="150" as="targetPoint" />
          </mxGeometry>
        </mxCell>
        <mxCell id="Kc8zFnVL3nJpbGEGr2F9-7" value="" style="endArrow=classic;html=1;rounded=0;" parent="1" edge="1">
          <mxGeometry width="50" height="50" relative="1" as="geometry">
            <mxPoint x="240" y="320" as="sourcePoint" />
            <mxPoint x="310" y="360" as="targetPoint" />
            <Array as="points">
              <mxPoint x="310" y="320" />
            </Array>
          </mxGeometry>
        </mxCell>
        <mxCell id="Kc8zFnVL3nJpbGEGr2F9-8" value="" style="endArrow=classic;html=1;rounded=0;" parent="1" edge="1">
          <mxGeometry width="50" height="50" relative="1" as="geometry">
            <mxPoint x="120" y="320" as="sourcePoint" />
            <mxPoint x="150" y="460" as="targetPoint" />
            <Array as="points">
              <mxPoint x="70" y="320" />
              <mxPoint x="70" y="460" />
            </Array>
          </mxGeometry>
        </mxCell>
        <mxCell id="Kc8zFnVL3nJpbGEGr2F9-9" value="" style="ellipse;whiteSpace=wrap;html=1;" parent="1" vertex="1">
          <mxGeometry x="155" y="440" width="50" height="50" as="geometry" />
        </mxCell>
        <mxCell id="Kc8zFnVL3nJpbGEGr2F9-10" value="Escribir&amp;nbsp; &quot;Eres major d&#39;edat" style="shape=parallelogram;perimeter=parallelogramPerimeter;whiteSpace=wrap;html=1;fixedSize=1;" parent="1" vertex="1">
          <mxGeometry x="230" y="370" width="170" height="30" as="geometry" />
        </mxCell>
        <mxCell id="Kc8zFnVL3nJpbGEGr2F9-11" value="" style="endArrow=classic;html=1;rounded=0;" parent="1" edge="1">
          <mxGeometry width="50" height="50" relative="1" as="geometry">
            <mxPoint x="310" y="420" as="sourcePoint" />
            <mxPoint x="210" y="470" as="targetPoint" />
            <Array as="points">
              <mxPoint x="310" y="470" />
            </Array>
          </mxGeometry>
        </mxCell>
        <mxCell id="Kc8zFnVL3nJpbGEGr2F9-12" value="" style="endArrow=classic;html=1;rounded=0;" parent="1" edge="1">
          <mxGeometry width="50" height="50" relative="1" as="geometry">
            <mxPoint x="180" y="500" as="sourcePoint" />
            <mxPoint x="180" y="510" as="targetPoint" />
          </mxGeometry>
        </mxCell>
        <mxCell id="Kc8zFnVL3nJpbGEGr2F9-15" value="INICIO" style="rounded=1;whiteSpace=wrap;html=1;" parent="1" vertex="1">
          <mxGeometry x="130" y="20" width="120" height="60" as="geometry" />
        </mxCell>
        <mxCell id="Kc8zFnVL3nJpbGEGr2F9-16" value="FIN" style="rounded=1;whiteSpace=wrap;html=1;" parent="1" vertex="1">
          <mxGeometry x="120" y="520" width="120" height="60" as="geometry" />
        </mxCell>
        <mxCell id="Kc8zFnVL3nJpbGEGr2F9-17" value="" style="endArrow=classic;html=1;rounded=0;" parent="1" edge="1">
          <mxGeometry width="50" height="50" relative="1" as="geometry">
            <mxPoint x="629.5" y="105" as="sourcePoint" />
            <mxPoint x="629.5" y="145" as="targetPoint" />
          </mxGeometry>
        </mxCell>
        <mxCell id="Kc8zFnVL3nJpbGEGr2F9-18" value="Leer Eddad" style="shape=parallelogram;perimeter=parallelogramPerimeter;whiteSpace=wrap;html=1;fixedSize=1;" parent="1" vertex="1">
          <mxGeometry x="570" y="145" width="130" height="60" as="geometry" />
        </mxCell>
        <mxCell id="Kc8zFnVL3nJpbGEGr2F9-19" value="edad&amp;gt;= 18" style="rhombus;whiteSpace=wrap;html=1;" parent="1" vertex="1">
          <mxGeometry x="570" y="285" width="120" height="90" as="geometry" />
        </mxCell>
        <mxCell id="Kc8zFnVL3nJpbGEGr2F9-20" value="" style="endArrow=classic;html=1;rounded=0;" parent="1" target="Kc8zFnVL3nJpbGEGr2F9-19" edge="1">
          <mxGeometry width="50" height="50" relative="1" as="geometry">
            <mxPoint x="630" y="215" as="sourcePoint" />
            <mxPoint x="680" y="165" as="targetPoint" />
          </mxGeometry>
        </mxCell>
        <mxCell id="Kc8zFnVL3nJpbGEGr2F9-21" value="" style="endArrow=classic;html=1;rounded=0;" parent="1" edge="1">
          <mxGeometry width="50" height="50" relative="1" as="geometry">
            <mxPoint x="690" y="335" as="sourcePoint" />
            <mxPoint x="760" y="375" as="targetPoint" />
            <Array as="points">
              <mxPoint x="760" y="335" />
            </Array>
          </mxGeometry>
        </mxCell>
        <mxCell id="Kc8zFnVL3nJpbGEGr2F9-23" value="" style="ellipse;whiteSpace=wrap;html=1;" parent="1" vertex="1">
          <mxGeometry x="605" y="455" width="50" height="50" as="geometry" />
        </mxCell>
        <mxCell id="Kc8zFnVL3nJpbGEGr2F9-24" value="" style="endArrow=classic;html=1;rounded=0;" parent="1" edge="1">
          <mxGeometry width="50" height="50" relative="1" as="geometry">
            <mxPoint x="760" y="435" as="sourcePoint" />
            <mxPoint x="660" y="485" as="targetPoint" />
            <Array as="points">
              <mxPoint x="760" y="485" />
            </Array>
          </mxGeometry>
        </mxCell>
        <mxCell id="Kc8zFnVL3nJpbGEGr2F9-25" value="" style="endArrow=classic;html=1;rounded=0;" parent="1" edge="1">
          <mxGeometry width="50" height="50" relative="1" as="geometry">
            <mxPoint x="630" y="515" as="sourcePoint" />
            <mxPoint x="630" y="525" as="targetPoint" />
          </mxGeometry>
        </mxCell>
        <mxCell id="Kc8zFnVL3nJpbGEGr2F9-26" value="INICIO" style="rounded=1;whiteSpace=wrap;html=1;" parent="1" vertex="1">
          <mxGeometry x="580" y="35" width="120" height="60" as="geometry" />
        </mxCell>
        <mxCell id="Kc8zFnVL3nJpbGEGr2F9-27" value="FIN" style="rounded=1;whiteSpace=wrap;html=1;" parent="1" vertex="1">
          <mxGeometry x="570" y="535" width="120" height="60" as="geometry" />
        </mxCell>
        <mxCell id="Kc8zFnVL3nJpbGEGr2F9-29" value="Escribir&lt;br&gt;&quot;Eres menor d&#39;edat&quot;" style="shape=parallelogram;perimeter=parallelogramPerimeter;whiteSpace=wrap;html=1;fixedSize=1;" parent="1" vertex="1">
          <mxGeometry x="441" y="380" width="147" height="60" as="geometry" />
        </mxCell>
        <mxCell id="Kc8zFnVL3nJpbGEGr2F9-30" value="Escribir:&lt;br&gt;&quot;Eres major d&#39;edat" style="shape=parallelogram;perimeter=parallelogramPerimeter;whiteSpace=wrap;html=1;fixedSize=1;" parent="1" vertex="1">
          <mxGeometry x="665" y="380" width="145" height="60" as="geometry" />
        </mxCell>
        <mxCell id="Kc8zFnVL3nJpbGEGr2F9-33" value="" style="endArrow=classic;html=1;rounded=0;" parent="1" edge="1">
          <mxGeometry width="50" height="50" relative="1" as="geometry">
            <mxPoint x="553" y="330" as="sourcePoint" />
            <mxPoint x="497" y="371" as="targetPoint" />
            <Array as="points">
              <mxPoint x="497" y="329" />
            </Array>
          </mxGeometry>
        </mxCell>
        <mxCell id="Kc8zFnVL3nJpbGEGr2F9-34" value="NO" style="text;html=1;align=center;verticalAlign=middle;resizable=0;points=[];autosize=1;strokeColor=none;fillColor=none;" parent="1" vertex="1">
          <mxGeometry x="521" y="283" width="35" height="35" as="geometry" />
        </mxCell>
        <mxCell id="Kc8zFnVL3nJpbGEGr2F9-35" value="SI" style="text;html=1;align=center;verticalAlign=middle;resizable=0;points=[];autosize=1;strokeColor=none;fillColor=none;" parent="1" vertex="1">
          <mxGeometry x="699" y="276" width="28" height="35" as="geometry" />
        </mxCell>
        <mxCell id="Kc8zFnVL3nJpbGEGr2F9-36" value="" style="endArrow=classic;html=1;rounded=0;" parent="1" edge="1">
          <mxGeometry width="50" height="50" relative="1" as="geometry">
            <mxPoint x="497" y="463" as="sourcePoint" />
            <mxPoint x="588" y="490" as="targetPoint" />
            <Array as="points">
              <mxPoint x="497" y="490" />
            </Array>
          </mxGeometry>
        </mxCell>
        <mxCell id="Kc8zFnVL3nJpbGEGr2F9-37" value="EJERICIO 8" style="text;html=1;align=center;verticalAlign=middle;resizable=0;points=[];autosize=1;strokeColor=none;fillColor=none;" parent="1" vertex="1">
          <mxGeometry x="-1" y="17" width="84" height="35" as="geometry" />
        </mxCell>
        <mxCell id="Kc8zFnVL3nJpbGEGr2F9-38" value="EJERCICIO 9&lt;br&gt;" style="text;html=1;align=center;verticalAlign=middle;resizable=0;points=[];autosize=1;strokeColor=none;fillColor=none;" parent="1" vertex="1">
          <mxGeometry x="451" y="24" width="91" height="35" as="geometry" />
        </mxCell>
        <mxCell id="Kc8zFnVL3nJpbGEGr2F9-39" value="INICIO" style="rounded=1;whiteSpace=wrap;html=1;" parent="1" vertex="1">
          <mxGeometry x="1085" y="-60" width="120" height="60" as="geometry" />
        </mxCell>
        <mxCell id="Kc8zFnVL3nJpbGEGr2F9-40" value="Leer 2 numeros&amp;nbsp;&lt;br&gt;A&amp;nbsp; Y B" style="shape=parallelogram;perimeter=parallelogramPerimeter;whiteSpace=wrap;html=1;fixedSize=1;" parent="1" vertex="1">
          <mxGeometry x="1078" y="70" width="120" height="60" as="geometry" />
        </mxCell>
        <mxCell id="Kc8zFnVL3nJpbGEGr2F9-41" value="A + B= C" style="rounded=0;whiteSpace=wrap;html=1;" parent="1" vertex="1">
          <mxGeometry x="847" y="283" width="120" height="60" as="geometry" />
        </mxCell>
        <mxCell id="Kc8zFnVL3nJpbGEGr2F9-42" value="A - B = D" style="rounded=0;whiteSpace=wrap;html=1;" parent="1" vertex="1">
          <mxGeometry x="1043" y="285" width="120" height="60" as="geometry" />
        </mxCell>
        <mxCell id="Kc8zFnVL3nJpbGEGr2F9-43" value="A * B= E" style="rounded=0;whiteSpace=wrap;html=1;" parent="1" vertex="1">
          <mxGeometry x="1211" y="283" width="120" height="60" as="geometry" />
        </mxCell>
        <mxCell id="Kc8zFnVL3nJpbGEGr2F9-44" value="A&amp;nbsp; / B =G&amp;nbsp;&amp;nbsp;" style="rounded=0;whiteSpace=wrap;html=1;" parent="1" vertex="1">
          <mxGeometry x="1358" y="287" width="120" height="60" as="geometry" />
        </mxCell>
        <mxCell id="Kc8zFnVL3nJpbGEGr2F9-45" value="" style="endArrow=classic;html=1;rounded=0;" parent="1" edge="1">
          <mxGeometry width="50" height="50" relative="1" as="geometry">
            <mxPoint x="1092" y="196" as="sourcePoint" />
            <mxPoint x="896" y="259" as="targetPoint" />
            <Array as="points">
              <mxPoint x="903" y="196" />
            </Array>
          </mxGeometry>
        </mxCell>
        <mxCell id="Kc8zFnVL3nJpbGEGr2F9-46" value="" style="ellipse;whiteSpace=wrap;html=1;" parent="1" vertex="1">
          <mxGeometry x="1099" y="175" width="63" height="35" as="geometry" />
        </mxCell>
        <mxCell id="Kc8zFnVL3nJpbGEGr2F9-47" value="" style="endArrow=classic;html=1;rounded=0;" parent="1" edge="1">
          <mxGeometry width="50" height="50" relative="1" as="geometry">
            <mxPoint x="1144.5" y="7" as="sourcePoint" />
            <mxPoint x="1144.5" y="62" as="targetPoint" />
            <Array as="points">
              <mxPoint x="1144.5" y="41" />
            </Array>
          </mxGeometry>
        </mxCell>
        <mxCell id="Kc8zFnVL3nJpbGEGr2F9-48" value="" style="endArrow=classic;html=1;rounded=0;" parent="1" edge="1">
          <mxGeometry width="50" height="50" relative="1" as="geometry">
            <mxPoint x="1120" y="225" as="sourcePoint" />
            <mxPoint x="1120" y="266" as="targetPoint" />
          </mxGeometry>
        </mxCell>
        <mxCell id="Kc8zFnVL3nJpbGEGr2F9-49" value="" style="endArrow=classic;html=1;rounded=0;" parent="1" edge="1">
          <mxGeometry width="50" height="50" relative="1" as="geometry">
            <mxPoint x="1183" y="197" as="sourcePoint" />
            <mxPoint x="1261" y="244.5" as="targetPoint" />
            <Array as="points">
              <mxPoint x="1261" y="196.5" />
            </Array>
          </mxGeometry>
        </mxCell>
        <mxCell id="Kc8zFnVL3nJpbGEGr2F9-51" value="" style="endArrow=classic;html=1;rounded=0;" parent="1" edge="1">
          <mxGeometry width="50" height="50" relative="1" as="geometry">
            <mxPoint x="1260" y="197" as="sourcePoint" />
            <mxPoint x="1414" y="266" as="targetPoint" />
            <Array as="points">
              <mxPoint x="1414" y="196" />
            </Array>
          </mxGeometry>
        </mxCell>
        <mxCell id="Kc8zFnVL3nJpbGEGr2F9-52" value="Escribir&lt;br&gt;C D E G" style="shape=parallelogram;perimeter=parallelogramPerimeter;whiteSpace=wrap;html=1;fixedSize=1;" parent="1" vertex="1">
          <mxGeometry x="1071" y="440" width="154" height="71" as="geometry" />
        </mxCell>
        <mxCell id="Kc8zFnVL3nJpbGEGr2F9-53" value="" style="endArrow=classic;html=1;rounded=0;" parent="1" edge="1">
          <mxGeometry width="50" height="50" relative="1" as="geometry">
            <mxPoint x="945" y="357" as="sourcePoint" />
            <mxPoint x="1071" y="462" as="targetPoint" />
            <Array as="points">
              <mxPoint x="945" y="462" />
            </Array>
          </mxGeometry>
        </mxCell>
        <mxCell id="Kc8zFnVL3nJpbGEGr2F9-54" value="" style="endArrow=classic;html=1;rounded=0;" parent="1" edge="1">
          <mxGeometry width="50" height="50" relative="1" as="geometry">
            <mxPoint x="1092" y="358" as="sourcePoint" />
            <mxPoint x="1106" y="420" as="targetPoint" />
          </mxGeometry>
        </mxCell>
        <mxCell id="Kc8zFnVL3nJpbGEGr2F9-55" value="" style="endArrow=classic;html=1;rounded=0;" parent="1" edge="1">
          <mxGeometry width="50" height="50" relative="1" as="geometry">
            <mxPoint x="1239" y="351" as="sourcePoint" />
            <mxPoint x="1197" y="413" as="targetPoint" />
          </mxGeometry>
        </mxCell>
        <mxCell id="Kc8zFnVL3nJpbGEGr2F9-56" value="" style="endArrow=classic;html=1;rounded=0;" parent="1" edge="1">
          <mxGeometry width="50" height="50" relative="1" as="geometry">
            <mxPoint x="1407" y="365" as="sourcePoint" />
            <mxPoint x="1239" y="469" as="targetPoint" />
            <Array as="points">
              <mxPoint x="1407" y="469" />
            </Array>
          </mxGeometry>
        </mxCell>
        <mxCell id="Kc8zFnVL3nJpbGEGr2F9-57" value="" style="endArrow=classic;html=1;rounded=0;" parent="1" edge="1">
          <mxGeometry width="50" height="50" relative="1" as="geometry">
            <mxPoint x="1141" y="533" as="sourcePoint" />
            <mxPoint x="1141" y="581" as="targetPoint" />
          </mxGeometry>
        </mxCell>
        <mxCell id="Kc8zFnVL3nJpbGEGr2F9-58" value="FIN" style="rounded=1;whiteSpace=wrap;html=1;" parent="1" vertex="1">
          <mxGeometry x="1071" y="595" width="120" height="60" as="geometry" />
        </mxCell>
        <mxCell id="Kc8zFnVL3nJpbGEGr2F9-59" value="" style="endArrow=classic;html=1;rounded=0;" parent="1" edge="1">
          <mxGeometry width="50" height="50" relative="1" as="geometry">
            <mxPoint x="1805.5" y="90" as="sourcePoint" />
            <mxPoint x="1805.5" y="130" as="targetPoint" />
          </mxGeometry>
        </mxCell>
        <mxCell id="Kc8zFnVL3nJpbGEGr2F9-60" value="Leer 2 numeros&lt;br&gt;a y b" style="shape=parallelogram;perimeter=parallelogramPerimeter;whiteSpace=wrap;html=1;fixedSize=1;" parent="1" vertex="1">
          <mxGeometry x="1746" y="130" width="130" height="60" as="geometry" />
        </mxCell>
        <mxCell id="Kc8zFnVL3nJpbGEGr2F9-61" value="a &amp;gt; b" style="rhombus;whiteSpace=wrap;html=1;" parent="1" vertex="1">
          <mxGeometry x="1746" y="270" width="120" height="90" as="geometry" />
        </mxCell>
        <mxCell id="Kc8zFnVL3nJpbGEGr2F9-62" value="" style="endArrow=classic;html=1;rounded=0;" parent="1" target="Kc8zFnVL3nJpbGEGr2F9-61" edge="1">
          <mxGeometry width="50" height="50" relative="1" as="geometry">
            <mxPoint x="1806" y="200" as="sourcePoint" />
            <mxPoint x="1856" y="150" as="targetPoint" />
          </mxGeometry>
        </mxCell>
        <mxCell id="Kc8zFnVL3nJpbGEGr2F9-63" value="" style="endArrow=classic;html=1;rounded=0;" parent="1" edge="1">
          <mxGeometry width="50" height="50" relative="1" as="geometry">
            <mxPoint x="1866" y="320" as="sourcePoint" />
            <mxPoint x="1936" y="360" as="targetPoint" />
            <Array as="points">
              <mxPoint x="1936" y="320" />
            </Array>
          </mxGeometry>
        </mxCell>
        <mxCell id="Kc8zFnVL3nJpbGEGr2F9-64" value="" style="ellipse;whiteSpace=wrap;html=1;" parent="1" vertex="1">
          <mxGeometry x="1781" y="440" width="50" height="50" as="geometry" />
        </mxCell>
        <mxCell id="Kc8zFnVL3nJpbGEGr2F9-65" value="" style="endArrow=classic;html=1;rounded=0;" parent="1" edge="1">
          <mxGeometry width="50" height="50" relative="1" as="geometry">
            <mxPoint x="1936" y="420" as="sourcePoint" />
            <mxPoint x="1836" y="470" as="targetPoint" />
            <Array as="points">
              <mxPoint x="1936" y="470" />
            </Array>
          </mxGeometry>
        </mxCell>
        <mxCell id="Kc8zFnVL3nJpbGEGr2F9-66" value="" style="endArrow=classic;html=1;rounded=0;" parent="1" edge="1">
          <mxGeometry width="50" height="50" relative="1" as="geometry">
            <mxPoint x="1806" y="500" as="sourcePoint" />
            <mxPoint x="1806" y="510" as="targetPoint" />
          </mxGeometry>
        </mxCell>
        <mxCell id="Kc8zFnVL3nJpbGEGr2F9-67" value="FIN" style="rounded=1;whiteSpace=wrap;html=1;" parent="1" vertex="1">
          <mxGeometry x="1746" y="520" width="120" height="60" as="geometry" />
        </mxCell>
        <mxCell id="Kc8zFnVL3nJpbGEGr2F9-68" value="" style="endArrow=classic;html=1;rounded=0;" parent="1" edge="1">
          <mxGeometry width="50" height="50" relative="1" as="geometry">
            <mxPoint x="1729" y="315" as="sourcePoint" />
            <mxPoint x="1673" y="356" as="targetPoint" />
            <Array as="points">
              <mxPoint x="1673" y="314" />
            </Array>
          </mxGeometry>
        </mxCell>
        <mxCell id="Kc8zFnVL3nJpbGEGr2F9-69" value="NO" style="text;html=1;align=center;verticalAlign=middle;resizable=0;points=[];autosize=1;strokeColor=none;fillColor=none;" parent="1" vertex="1">
          <mxGeometry x="1697" y="268" width="35" height="35" as="geometry" />
        </mxCell>
        <mxCell id="Kc8zFnVL3nJpbGEGr2F9-70" value="SI" style="text;html=1;align=center;verticalAlign=middle;resizable=0;points=[];autosize=1;strokeColor=none;fillColor=none;" parent="1" vertex="1">
          <mxGeometry x="1875" y="261" width="28" height="35" as="geometry" />
        </mxCell>
        <mxCell id="Kc8zFnVL3nJpbGEGr2F9-71" value="" style="endArrow=classic;html=1;rounded=0;" parent="1" edge="1">
          <mxGeometry width="50" height="50" relative="1" as="geometry">
            <mxPoint x="1673" y="448" as="sourcePoint" />
            <mxPoint x="1764" y="475" as="targetPoint" />
            <Array as="points">
              <mxPoint x="1673" y="475" />
            </Array>
          </mxGeometry>
        </mxCell>
        <mxCell id="Kc8zFnVL3nJpbGEGr2F9-72" value="Inicio" style="rounded=1;whiteSpace=wrap;html=1;" parent="1" vertex="1">
          <mxGeometry x="1746" y="24" width="120" height="60" as="geometry" />
        </mxCell>
        <mxCell id="Kc8zFnVL3nJpbGEGr2F9-73" value="escribir a" style="shape=parallelogram;perimeter=parallelogramPerimeter;whiteSpace=wrap;html=1;fixedSize=1;" parent="1" vertex="1">
          <mxGeometry x="1876" y="371" width="120" height="49" as="geometry" />
        </mxCell>
        <mxCell id="Kc8zFnVL3nJpbGEGr2F9-74" value="Escribir b&amp;nbsp;" style="shape=parallelogram;perimeter=parallelogramPerimeter;whiteSpace=wrap;html=1;fixedSize=1;" parent="1" vertex="1">
          <mxGeometry x="1612" y="370" width="120" height="60" as="geometry" />
        </mxCell>
        <mxCell id="Kc8zFnVL3nJpbGEGr2F9-92" value="" style="endArrow=classic;html=1;rounded=0;" parent="1" edge="1">
          <mxGeometry width="50" height="50" relative="1" as="geometry">
            <mxPoint x="2265.5" y="90" as="sourcePoint" />
            <mxPoint x="2265.5" y="130" as="targetPoint" />
          </mxGeometry>
        </mxCell>
        <mxCell id="Kc8zFnVL3nJpbGEGr2F9-93" value="Leer&amp;nbsp; 1 numro&lt;br&gt;a" style="shape=parallelogram;perimeter=parallelogramPerimeter;whiteSpace=wrap;html=1;fixedSize=1;" parent="1" vertex="1">
          <mxGeometry x="2206" y="130" width="130" height="60" as="geometry" />
        </mxCell>
        <mxCell id="Kc8zFnVL3nJpbGEGr2F9-94" value="a =&amp;gt; 0" style="rhombus;whiteSpace=wrap;html=1;" parent="1" vertex="1">
          <mxGeometry x="2206" y="270" width="120" height="90" as="geometry" />
        </mxCell>
        <mxCell id="Kc8zFnVL3nJpbGEGr2F9-95" value="" style="endArrow=classic;html=1;rounded=0;" parent="1" target="Kc8zFnVL3nJpbGEGr2F9-94" edge="1">
          <mxGeometry width="50" height="50" relative="1" as="geometry">
            <mxPoint x="2266" y="200" as="sourcePoint" />
            <mxPoint x="2316" y="150" as="targetPoint" />
          </mxGeometry>
        </mxCell>
        <mxCell id="Kc8zFnVL3nJpbGEGr2F9-96" value="" style="endArrow=classic;html=1;rounded=0;" parent="1" edge="1">
          <mxGeometry width="50" height="50" relative="1" as="geometry">
            <mxPoint x="2326" y="320" as="sourcePoint" />
            <mxPoint x="2396" y="360" as="targetPoint" />
            <Array as="points">
              <mxPoint x="2396" y="320" />
            </Array>
          </mxGeometry>
        </mxCell>
        <mxCell id="Kc8zFnVL3nJpbGEGr2F9-97" value="" style="ellipse;whiteSpace=wrap;html=1;" parent="1" vertex="1">
          <mxGeometry x="2241" y="440" width="50" height="50" as="geometry" />
        </mxCell>
        <mxCell id="Kc8zFnVL3nJpbGEGr2F9-98" value="" style="endArrow=classic;html=1;rounded=0;" parent="1" edge="1">
          <mxGeometry width="50" height="50" relative="1" as="geometry">
            <mxPoint x="2396" y="420" as="sourcePoint" />
            <mxPoint x="2296" y="470" as="targetPoint" />
            <Array as="points">
              <mxPoint x="2396" y="470" />
            </Array>
          </mxGeometry>
        </mxCell>
        <mxCell id="Kc8zFnVL3nJpbGEGr2F9-99" value="" style="endArrow=classic;html=1;rounded=0;" parent="1" edge="1">
          <mxGeometry width="50" height="50" relative="1" as="geometry">
            <mxPoint x="2266" y="500" as="sourcePoint" />
            <mxPoint x="2266" y="510" as="targetPoint" />
          </mxGeometry>
        </mxCell>
        <mxCell id="Kc8zFnVL3nJpbGEGr2F9-100" value="FIN" style="rounded=1;whiteSpace=wrap;html=1;" parent="1" vertex="1">
          <mxGeometry x="2206" y="520" width="120" height="60" as="geometry" />
        </mxCell>
        <mxCell id="Kc8zFnVL3nJpbGEGr2F9-101" value="" style="endArrow=classic;html=1;rounded=0;" parent="1" edge="1">
          <mxGeometry width="50" height="50" relative="1" as="geometry">
            <mxPoint x="2189" y="315" as="sourcePoint" />
            <mxPoint x="2133" y="356" as="targetPoint" />
            <Array as="points">
              <mxPoint x="2133" y="314" />
            </Array>
          </mxGeometry>
        </mxCell>
        <mxCell id="Kc8zFnVL3nJpbGEGr2F9-102" value="NO" style="text;html=1;align=center;verticalAlign=middle;resizable=0;points=[];autosize=1;strokeColor=none;fillColor=none;" parent="1" vertex="1">
          <mxGeometry x="2157" y="268" width="35" height="35" as="geometry" />
        </mxCell>
        <mxCell id="Kc8zFnVL3nJpbGEGr2F9-103" value="SI" style="text;html=1;align=center;verticalAlign=middle;resizable=0;points=[];autosize=1;strokeColor=none;fillColor=none;" parent="1" vertex="1">
          <mxGeometry x="2335" y="261" width="28" height="35" as="geometry" />
        </mxCell>
        <mxCell id="Kc8zFnVL3nJpbGEGr2F9-104" value="" style="endArrow=classic;html=1;rounded=0;" parent="1" edge="1">
          <mxGeometry width="50" height="50" relative="1" as="geometry">
            <mxPoint x="2133" y="448" as="sourcePoint" />
            <mxPoint x="2224" y="475" as="targetPoint" />
            <Array as="points">
              <mxPoint x="2133" y="475" />
            </Array>
          </mxGeometry>
        </mxCell>
        <mxCell id="Kc8zFnVL3nJpbGEGr2F9-105" value="Inicio" style="rounded=1;whiteSpace=wrap;html=1;" parent="1" vertex="1">
          <mxGeometry x="2206" y="24" width="120" height="60" as="geometry" />
        </mxCell>
        <mxCell id="Kc8zFnVL3nJpbGEGr2F9-106" value="Escribir&lt;br&gt;&quot;Positiu&quot;" style="shape=parallelogram;perimeter=parallelogramPerimeter;whiteSpace=wrap;html=1;fixedSize=1;" parent="1" vertex="1">
          <mxGeometry x="2336" y="371" width="120" height="49" as="geometry" />
        </mxCell>
        <mxCell id="Kc8zFnVL3nJpbGEGr2F9-107" value="Escribir&lt;br&gt;&quot;negatiu&quot;" style="shape=parallelogram;perimeter=parallelogramPerimeter;whiteSpace=wrap;html=1;fixedSize=1;" parent="1" vertex="1">
          <mxGeometry x="2072" y="370" width="120" height="60" as="geometry" />
        </mxCell>
        <mxCell id="Kc8zFnVL3nJpbGEGr2F9-108" value="" style="endArrow=classic;html=1;rounded=0;" parent="1" edge="1">
          <mxGeometry width="50" height="50" relative="1" as="geometry">
            <mxPoint x="2694.5" y="74.5" as="sourcePoint" />
            <mxPoint x="2694.5" y="114.5" as="targetPoint" />
          </mxGeometry>
        </mxCell>
        <mxCell id="Kc8zFnVL3nJpbGEGr2F9-109" value="Leer 2 numeros&lt;br&gt;a y b" style="shape=parallelogram;perimeter=parallelogramPerimeter;whiteSpace=wrap;html=1;fixedSize=1;" parent="1" vertex="1">
          <mxGeometry x="2635" y="114.5" width="130" height="60" as="geometry" />
        </mxCell>
        <mxCell id="Kc8zFnVL3nJpbGEGr2F9-110" value="a &amp;gt; b" style="rhombus;whiteSpace=wrap;html=1;" parent="1" vertex="1">
          <mxGeometry x="2635" y="225" width="120" height="90" as="geometry" />
        </mxCell>
        <mxCell id="Kc8zFnVL3nJpbGEGr2F9-111" value="" style="endArrow=classic;html=1;rounded=0;" parent="1" target="Kc8zFnVL3nJpbGEGr2F9-110" edge="1">
          <mxGeometry width="50" height="50" relative="1" as="geometry">
            <mxPoint x="2695" y="184.5" as="sourcePoint" />
            <mxPoint x="2745" y="134.5" as="targetPoint" />
          </mxGeometry>
        </mxCell>
        <mxCell id="Kc8zFnVL3nJpbGEGr2F9-112" value="" style="endArrow=classic;html=1;rounded=0;" parent="1" edge="1">
          <mxGeometry width="50" height="50" relative="1" as="geometry">
            <mxPoint x="2774" y="275" as="sourcePoint" />
            <mxPoint x="2844" y="315" as="targetPoint" />
            <Array as="points">
              <mxPoint x="2844" y="275" />
            </Array>
          </mxGeometry>
        </mxCell>
        <mxCell id="Kc8zFnVL3nJpbGEGr2F9-113" value="" style="ellipse;whiteSpace=wrap;html=1;" parent="1" vertex="1">
          <mxGeometry x="2670" y="498.5" width="50" height="21" as="geometry" />
        </mxCell>
        <mxCell id="Kc8zFnVL3nJpbGEGr2F9-114" value="" style="endArrow=classic;html=1;rounded=0;" parent="1" edge="1">
          <mxGeometry width="50" height="50" relative="1" as="geometry">
            <mxPoint x="2839" y="477.5" as="sourcePoint" />
            <mxPoint x="2739" y="506.5" as="targetPoint" />
            <Array as="points">
              <mxPoint x="2839" y="506.5" />
            </Array>
          </mxGeometry>
        </mxCell>
        <mxCell id="Kc8zFnVL3nJpbGEGr2F9-115" value="" style="endArrow=classic;html=1;rounded=0;" parent="1" edge="1">
          <mxGeometry width="50" height="50" relative="1" as="geometry">
            <mxPoint x="2694.5" y="540.5" as="sourcePoint" />
            <mxPoint x="2694.5" y="550.5" as="targetPoint" />
          </mxGeometry>
        </mxCell>
        <mxCell id="Kc8zFnVL3nJpbGEGr2F9-116" value="FIN" style="rounded=1;whiteSpace=wrap;html=1;" parent="1" vertex="1">
          <mxGeometry x="2635" y="561.5" width="120" height="60" as="geometry" />
        </mxCell>
        <mxCell id="Kc8zFnVL3nJpbGEGr2F9-117" value="" style="endArrow=classic;html=1;rounded=0;" parent="1" edge="1">
          <mxGeometry width="50" height="50" relative="1" as="geometry">
            <mxPoint x="2613" y="274" as="sourcePoint" />
            <mxPoint x="2557" y="315" as="targetPoint" />
            <Array as="points">
              <mxPoint x="2557" y="273" />
            </Array>
          </mxGeometry>
        </mxCell>
        <mxCell id="Kc8zFnVL3nJpbGEGr2F9-118" value="NO" style="text;html=1;align=center;verticalAlign=middle;resizable=0;points=[];autosize=1;strokeColor=none;fillColor=none;" parent="1" vertex="1">
          <mxGeometry x="2591" y="225" width="35" height="35" as="geometry" />
        </mxCell>
        <mxCell id="Kc8zFnVL3nJpbGEGr2F9-119" value="SI" style="text;html=1;align=center;verticalAlign=middle;resizable=0;points=[];autosize=1;strokeColor=none;fillColor=none;" parent="1" vertex="1">
          <mxGeometry x="2764" y="245.5" width="28" height="35" as="geometry" />
        </mxCell>
        <mxCell id="Kc8zFnVL3nJpbGEGr2F9-120" value="" style="endArrow=classic;html=1;rounded=0;" parent="1" edge="1">
          <mxGeometry width="50" height="50" relative="1" as="geometry">
            <mxPoint x="2571" y="484.5" as="sourcePoint" />
            <mxPoint x="2662" y="511.5" as="targetPoint" />
            <Array as="points">
              <mxPoint x="2571" y="511.5" />
            </Array>
          </mxGeometry>
        </mxCell>
        <mxCell id="Kc8zFnVL3nJpbGEGr2F9-121" value="Inicio" style="rounded=1;whiteSpace=wrap;html=1;" parent="1" vertex="1">
          <mxGeometry x="2635" y="8.5" width="120" height="60" as="geometry" />
        </mxCell>
        <mxCell id="Kc8zFnVL3nJpbGEGr2F9-122" value="escribir b" style="shape=parallelogram;perimeter=parallelogramPerimeter;whiteSpace=wrap;html=1;fixedSize=1;" parent="1" vertex="1">
          <mxGeometry x="2781" y="320.5" width="120" height="49" as="geometry" />
        </mxCell>
        <mxCell id="Kc8zFnVL3nJpbGEGr2F9-123" value="Escribir a&amp;nbsp;" style="shape=parallelogram;perimeter=parallelogramPerimeter;whiteSpace=wrap;html=1;fixedSize=1;" parent="1" vertex="1">
          <mxGeometry x="2506" y="320.5" width="120" height="60" as="geometry" />
        </mxCell>
        <mxCell id="Kc8zFnVL3nJpbGEGr2F9-124" value="Ejercico 10" style="text;html=1;align=center;verticalAlign=middle;resizable=0;points=[];autosize=1;strokeColor=none;fillColor=none;" parent="1" vertex="1">
          <mxGeometry x="892" y="17" width="77" height="35" as="geometry" />
        </mxCell>
        <mxCell id="Kc8zFnVL3nJpbGEGr2F9-125" value="&lt;br&gt;Ejercicio 11" style="text;html=1;align=center;verticalAlign=middle;resizable=0;points=[];autosize=1;strokeColor=none;fillColor=none;" parent="1" vertex="1">
          <mxGeometry x="1659" y="20" width="77" height="49" as="geometry" />
        </mxCell>
        <mxCell id="Kc8zFnVL3nJpbGEGr2F9-126" value="Text" style="text;html=1;strokeColor=none;fillColor=none;align=center;verticalAlign=middle;whiteSpace=wrap;rounded=0;" parent="1" vertex="1">
          <mxGeometry x="2324" y="126" width="60" height="30" as="geometry" />
        </mxCell>
        <mxCell id="Kc8zFnVL3nJpbGEGr2F9-127" value="Ejercicio 12" style="text;html=1;align=center;verticalAlign=middle;resizable=0;points=[];autosize=1;strokeColor=none;fillColor=none;" parent="1" vertex="1">
          <mxGeometry x="2100" y="36.5" width="84" height="35" as="geometry" />
        </mxCell>
        <mxCell id="Kc8zFnVL3nJpbGEGr2F9-130" value="ejercicio 13" style="text;html=1;strokeColor=none;fillColor=none;align=center;verticalAlign=middle;whiteSpace=wrap;rounded=0;" parent="1" vertex="1">
          <mxGeometry x="2522" y="15.5" width="60" height="30" as="geometry" />
        </mxCell>
        <mxCell id="Kc8zFnVL3nJpbGEGr2F9-132" value="Escribir a" style="shape=parallelogram;perimeter=parallelogramPerimeter;whiteSpace=wrap;html=1;fixedSize=1;" parent="1" vertex="1">
          <mxGeometry x="2765" y="421.5" width="142" height="53" as="geometry" />
        </mxCell>
        <mxCell id="Kc8zFnVL3nJpbGEGr2F9-133" value="" style="endArrow=classic;html=1;rounded=0;" parent="1" edge="1">
          <mxGeometry width="50" height="50" relative="1" as="geometry">
            <mxPoint x="2842" y="375" as="sourcePoint" />
            <mxPoint x="2842" y="416" as="targetPoint" />
          </mxGeometry>
        </mxCell>
        <mxCell id="Kc8zFnVL3nJpbGEGr2F9-136" value="Escribir b" style="shape=parallelogram;perimeter=parallelogramPerimeter;whiteSpace=wrap;html=1;fixedSize=1;" parent="1" vertex="1">
          <mxGeometry x="2499" y="430.5" width="120" height="35" as="geometry" />
        </mxCell>
        <mxCell id="Kc8zFnVL3nJpbGEGr2F9-138" value="" style="endArrow=classic;html=1;rounded=0;" parent="1" edge="1">
          <mxGeometry width="50" height="50" relative="1" as="geometry">
            <mxPoint x="2562" y="393" as="sourcePoint" />
            <mxPoint x="2562" y="427" as="targetPoint" />
          </mxGeometry>
        </mxCell>
        <mxCell id="aD8e4Fseu3t0xPhQuSQT-1" value="Iniciio" style="rounded=1;whiteSpace=wrap;html=1;" parent="1" vertex="1">
          <mxGeometry x="3122" y="4.5" width="120" height="60" as="geometry" />
        </mxCell>
        <mxCell id="aD8e4Fseu3t0xPhQuSQT-2" value="" style="endArrow=classic;html=1;rounded=0;" parent="1" edge="1">
          <mxGeometry width="50" height="50" relative="1" as="geometry">
            <mxPoint x="3181.5" y="69" as="sourcePoint" />
            <mxPoint x="3181.5" y="117" as="targetPoint" />
          </mxGeometry>
        </mxCell>
        <mxCell id="aD8e4Fseu3t0xPhQuSQT-3" value="&amp;nbsp;Leer 2 numeros&lt;br&gt;a y b" style="shape=parallelogram;perimeter=parallelogramPerimeter;whiteSpace=wrap;html=1;fixedSize=1;" parent="1" vertex="1">
          <mxGeometry x="3101.5" y="126" width="161" height="70" as="geometry" />
        </mxCell>
        <mxCell id="aD8e4Fseu3t0xPhQuSQT-6" value="a =&amp;gt; b" style="rhombus;whiteSpace=wrap;html=1;" parent="1" vertex="1">
          <mxGeometry x="3129" y="273" width="119" height="84" as="geometry" />
        </mxCell>
        <mxCell id="aD8e4Fseu3t0xPhQuSQT-7" value="" style="endArrow=classic;html=1;rounded=0;" parent="1" edge="1">
          <mxGeometry width="50" height="50" relative="1" as="geometry">
            <mxPoint x="3122" y="316" as="sourcePoint" />
            <mxPoint x="3052" y="413" as="targetPoint" />
            <Array as="points">
              <mxPoint x="3052" y="316" />
            </Array>
          </mxGeometry>
        </mxCell>
        <mxCell id="aD8e4Fseu3t0xPhQuSQT-8" value="Si" style="text;html=1;align=center;verticalAlign=middle;resizable=0;points=[];autosize=1;strokeColor=none;fillColor=none;" parent="1" vertex="1">
          <mxGeometry x="3051" y="276" width="28" height="35" as="geometry" />
        </mxCell>
        <mxCell id="aD8e4Fseu3t0xPhQuSQT-10" value="a =b" style="rhombus;whiteSpace=wrap;html=1;" parent="1" vertex="1">
          <mxGeometry x="2989" y="430" width="126" height="95" as="geometry" />
        </mxCell>
        <mxCell id="aD8e4Fseu3t0xPhQuSQT-11" value="" style="endArrow=classic;html=1;rounded=0;entryX=1;entryY=1;entryDx=0;entryDy=0;" parent="1" source="aD8e4Fseu3t0xPhQuSQT-10" target="aD8e4Fseu3t0xPhQuSQT-13" edge="1">
          <mxGeometry width="50" height="50" relative="1" as="geometry">
            <mxPoint x="2968" y="519" as="sourcePoint" />
            <mxPoint x="2969.6000000000004" y="585" as="targetPoint" />
            <Array as="points">
              <mxPoint x="2968" y="525" />
            </Array>
          </mxGeometry>
        </mxCell>
        <mxCell id="aD8e4Fseu3t0xPhQuSQT-13" value="si" style="text;html=1;strokeColor=none;fillColor=none;align=center;verticalAlign=middle;whiteSpace=wrap;rounded=0;" parent="1" vertex="1">
          <mxGeometry x="2907" y="531.5" width="60" height="30" as="geometry" />
        </mxCell>
        <mxCell id="aD8e4Fseu3t0xPhQuSQT-14" value="" style="endArrow=classic;html=1;rounded=0;" parent="1" edge="1">
          <mxGeometry width="50" height="50" relative="1" as="geometry">
            <mxPoint x="3087" y="505" as="sourcePoint" />
            <mxPoint x="3150" y="574" as="targetPoint" />
            <Array as="points">
              <mxPoint x="3150" y="505" />
            </Array>
          </mxGeometry>
        </mxCell>
        <mxCell id="aD8e4Fseu3t0xPhQuSQT-15" value="no" style="text;html=1;strokeColor=none;fillColor=none;align=center;verticalAlign=middle;whiteSpace=wrap;rounded=0;" parent="1" vertex="1">
          <mxGeometry x="3152" y="511" width="60" height="30" as="geometry" />
        </mxCell>
        <mxCell id="aD8e4Fseu3t0xPhQuSQT-16" value="Escribir&lt;br&gt;a = b" style="shape=parallelogram;perimeter=parallelogramPerimeter;whiteSpace=wrap;html=1;fixedSize=1;" parent="1" vertex="1">
          <mxGeometry x="2907" y="567" width="120" height="60" as="geometry" />
        </mxCell>
        <mxCell id="aD8e4Fseu3t0xPhQuSQT-17" value="&lt;br&gt;Escribir&lt;br&gt;a &amp;gt; b" style="shape=parallelogram;perimeter=parallelogramPerimeter;whiteSpace=wrap;html=1;fixedSize=1;" parent="1" vertex="1">
          <mxGeometry x="3092" y="574" width="120" height="60" as="geometry" />
        </mxCell>
        <mxCell id="aD8e4Fseu3t0xPhQuSQT-18" value="no" style="text;html=1;strokeColor=none;fillColor=none;align=center;verticalAlign=middle;whiteSpace=wrap;rounded=0;" parent="1" vertex="1">
          <mxGeometry x="3248" y="278.5" width="60" height="30" as="geometry" />
        </mxCell>
        <mxCell id="aD8e4Fseu3t0xPhQuSQT-19" value="" style="ellipse;whiteSpace=wrap;html=1;" parent="1" vertex="1">
          <mxGeometry x="3115" y="700" width="57" height="52" as="geometry" />
        </mxCell>
        <mxCell id="aD8e4Fseu3t0xPhQuSQT-20" value="" style="endArrow=classic;html=1;rounded=0;entryX=0.5;entryY=0;entryDx=0;entryDy=0;" parent="1" target="-NzjHe6JHwoF-1MMWL6W-3" edge="1">
          <mxGeometry width="50" height="50" relative="1" as="geometry">
            <mxPoint x="3248" y="316" as="sourcePoint" />
            <mxPoint x="3353" y="525" as="targetPoint" />
            <Array as="points">
              <mxPoint x="3353" y="315" />
            </Array>
          </mxGeometry>
        </mxCell>
        <mxCell id="-NzjHe6JHwoF-1MMWL6W-2" value="" style="endArrow=classic;html=1;rounded=0;entryX=0.5;entryY=0;entryDx=0;entryDy=0;exitX=0.5;exitY=1;exitDx=0;exitDy=0;" parent="1" source="aD8e4Fseu3t0xPhQuSQT-3" target="aD8e4Fseu3t0xPhQuSQT-6" edge="1">
          <mxGeometry width="50" height="50" relative="1" as="geometry">
            <mxPoint x="2989" y="176" as="sourcePoint" />
            <mxPoint x="3039" y="126" as="targetPoint" />
          </mxGeometry>
        </mxCell>
        <mxCell id="-NzjHe6JHwoF-1MMWL6W-3" value="Escribir&lt;br&gt;b &amp;gt;a&amp;nbsp;" style="shape=parallelogram;perimeter=parallelogramPerimeter;whiteSpace=wrap;html=1;fixedSize=1;" parent="1" vertex="1">
          <mxGeometry x="3290" y="574" width="120" height="60" as="geometry" />
        </mxCell>
        <mxCell id="-NzjHe6JHwoF-1MMWL6W-4" value="" style="endArrow=classic;html=1;rounded=0;entryX=0;entryY=0.5;entryDx=0;entryDy=0;" parent="1" target="aD8e4Fseu3t0xPhQuSQT-19" edge="1">
          <mxGeometry width="50" height="50" relative="1" as="geometry">
            <mxPoint x="2961" y="631" as="sourcePoint" />
            <mxPoint x="2968" y="777" as="targetPoint" />
            <Array as="points">
              <mxPoint x="2961" y="726" />
            </Array>
          </mxGeometry>
        </mxCell>
        <mxCell id="-NzjHe6JHwoF-1MMWL6W-5" value="" style="endArrow=classic;html=1;rounded=0;exitX=0.425;exitY=1;exitDx=0;exitDy=0;exitPerimeter=0;entryX=0.5;entryY=0;entryDx=0;entryDy=0;" parent="1" source="aD8e4Fseu3t0xPhQuSQT-17" target="aD8e4Fseu3t0xPhQuSQT-19" edge="1">
          <mxGeometry width="50" height="50" relative="1" as="geometry">
            <mxPoint x="3192" y="715" as="sourcePoint" />
            <mxPoint x="3242" y="665" as="targetPoint" />
          </mxGeometry>
        </mxCell>
        <mxCell id="-NzjHe6JHwoF-1MMWL6W-6" value="" style="endArrow=classic;html=1;rounded=0;entryX=1;entryY=0.5;entryDx=0;entryDy=0;exitX=0.5;exitY=1;exitDx=0;exitDy=0;" parent="1" source="-NzjHe6JHwoF-1MMWL6W-3" target="aD8e4Fseu3t0xPhQuSQT-19" edge="1">
          <mxGeometry width="50" height="50" relative="1" as="geometry">
            <mxPoint x="3297" y="757" as="sourcePoint" />
            <mxPoint x="3347" y="707" as="targetPoint" />
            <Array as="points">
              <mxPoint x="3350" y="721" />
            </Array>
          </mxGeometry>
        </mxCell>
        <mxCell id="-NzjHe6JHwoF-1MMWL6W-7" value="Fin" style="rounded=1;whiteSpace=wrap;html=1;" parent="1" vertex="1">
          <mxGeometry x="3073" y="791" width="120" height="60" as="geometry" />
        </mxCell>
        <mxCell id="-NzjHe6JHwoF-1MMWL6W-8" value="" style="endArrow=classic;html=1;rounded=0;entryX=0.583;entryY=0.033;entryDx=0;entryDy=0;entryPerimeter=0;exitX=0.5;exitY=1;exitDx=0;exitDy=0;" parent="1" source="aD8e4Fseu3t0xPhQuSQT-19" target="-NzjHe6JHwoF-1MMWL6W-7" edge="1">
          <mxGeometry width="50" height="50" relative="1" as="geometry">
            <mxPoint x="2779" y="722" as="sourcePoint" />
            <mxPoint x="2829" y="672" as="targetPoint" />
          </mxGeometry>
        </mxCell>
        <mxCell id="-NzjHe6JHwoF-1MMWL6W-9" value="Ejercicio&amp;nbsp; 14" style="text;html=1;strokeColor=none;fillColor=none;align=center;verticalAlign=middle;whiteSpace=wrap;rounded=0;" parent="1" vertex="1">
          <mxGeometry x="3019" y="14" width="60" height="30" as="geometry" />
        </mxCell>
        <mxCell id="-NzjHe6JHwoF-1MMWL6W-10" value="Ejercicio 15" style="text;html=1;strokeColor=none;fillColor=none;align=center;verticalAlign=middle;whiteSpace=wrap;rounded=0;" parent="1" vertex="1">
          <mxGeometry x="3430" y="17" width="60" height="30" as="geometry" />
        </mxCell>
        <mxCell id="-NzjHe6JHwoF-1MMWL6W-11" value="Inicio" style="rounded=1;whiteSpace=wrap;html=1;" parent="1" vertex="1">
          <mxGeometry x="3689" y="16" width="120" height="60" as="geometry" />
        </mxCell>
        <mxCell id="-NzjHe6JHwoF-1MMWL6W-12" value="" style="endArrow=classic;html=1;rounded=0;exitX=0.5;exitY=1;exitDx=0;exitDy=0;entryX=0.5;entryY=0;entryDx=0;entryDy=0;" parent="1" source="-NzjHe6JHwoF-1MMWL6W-11" target="-NzjHe6JHwoF-1MMWL6W-13" edge="1">
          <mxGeometry width="50" height="50" relative="1" as="geometry">
            <mxPoint x="3633" y="162" as="sourcePoint" />
            <mxPoint x="3749" y="140" as="targetPoint" />
          </mxGeometry>
        </mxCell>
        <mxCell id="-NzjHe6JHwoF-1MMWL6W-13" value="Leer 3 numeros&lt;br&gt;a b c" style="shape=parallelogram;perimeter=parallelogramPerimeter;whiteSpace=wrap;html=1;fixedSize=1;" parent="1" vertex="1">
          <mxGeometry x="3661" y="126" width="168" height="60" as="geometry" />
        </mxCell>
        <mxCell id="-NzjHe6JHwoF-1MMWL6W-14" value="a &amp;gt; b" style="rhombus;whiteSpace=wrap;html=1;" parent="1" vertex="1">
          <mxGeometry x="3689" y="240.5" width="110" height="80" as="geometry" />
        </mxCell>
        <mxCell id="-NzjHe6JHwoF-1MMWL6W-15" value="" style="endArrow=classic;html=1;rounded=0;entryX=0.5;entryY=0;entryDx=0;entryDy=0;exitX=0.5;exitY=1;exitDx=0;exitDy=0;" parent="1" source="-NzjHe6JHwoF-1MMWL6W-13" target="-NzjHe6JHwoF-1MMWL6W-14" edge="1">
          <mxGeometry width="50" height="50" relative="1" as="geometry">
            <mxPoint x="3731" y="190" as="sourcePoint" />
            <mxPoint x="3781" y="140" as="targetPoint" />
          </mxGeometry>
        </mxCell>
        <mxCell id="-NzjHe6JHwoF-1MMWL6W-16" value="" style="endArrow=classic;html=1;rounded=0;entryX=0.5;entryY=0;entryDx=0;entryDy=0;" parent="1" target="-NzjHe6JHwoF-1MMWL6W-19" edge="1">
          <mxGeometry width="50" height="50" relative="1" as="geometry">
            <mxPoint x="3689" y="281" as="sourcePoint" />
            <mxPoint x="3546" y="282.6531791907514" as="targetPoint" />
            <Array as="points">
              <mxPoint x="3633" y="280" />
            </Array>
          </mxGeometry>
        </mxCell>
        <mxCell id="-NzjHe6JHwoF-1MMWL6W-18" value="si" style="text;html=1;strokeColor=none;fillColor=none;align=center;verticalAlign=middle;whiteSpace=wrap;rounded=0;" parent="1" vertex="1">
          <mxGeometry x="3605" y="240.5" width="60" height="30" as="geometry" />
        </mxCell>
        <mxCell id="-NzjHe6JHwoF-1MMWL6W-19" value="a &amp;gt; c" style="rhombus;whiteSpace=wrap;html=1;" parent="1" vertex="1">
          <mxGeometry x="3595" y="355.5" width="80" height="80" as="geometry" />
        </mxCell>
        <mxCell id="-NzjHe6JHwoF-1MMWL6W-20" value="" style="endArrow=classic;html=1;rounded=0;exitX=0;exitY=0.5;exitDx=0;exitDy=0;" parent="1" source="-NzjHe6JHwoF-1MMWL6W-19" edge="1">
          <mxGeometry width="50" height="50" relative="1" as="geometry">
            <mxPoint x="3521" y="386" as="sourcePoint" />
            <mxPoint x="3521" y="497" as="targetPoint" />
            <Array as="points">
              <mxPoint x="3521" y="396" />
            </Array>
          </mxGeometry>
        </mxCell>
        <mxCell id="-NzjHe6JHwoF-1MMWL6W-21" value="Escribir a&amp;nbsp;&lt;br&gt;es el mayor" style="shape=parallelogram;perimeter=parallelogramPerimeter;whiteSpace=wrap;html=1;fixedSize=1;" parent="1" vertex="1">
          <mxGeometry x="3465" y="498.5" width="120" height="60" as="geometry" />
        </mxCell>
        <mxCell id="-NzjHe6JHwoF-1MMWL6W-22" value="Escribir c&amp;nbsp;&lt;br&gt;es el mayor" style="shape=parallelogram;perimeter=parallelogramPerimeter;whiteSpace=wrap;html=1;fixedSize=1;" parent="1" vertex="1">
          <mxGeometry x="3654" y="502" width="120" height="60" as="geometry" />
        </mxCell>
        <mxCell id="-NzjHe6JHwoF-1MMWL6W-23" value="" style="endArrow=classic;html=1;rounded=0;entryX=0.5;entryY=0;entryDx=0;entryDy=0;" parent="1" target="-NzjHe6JHwoF-1MMWL6W-22" edge="1">
          <mxGeometry width="50" height="50" relative="1" as="geometry">
            <mxPoint x="3668" y="400" as="sourcePoint" />
            <mxPoint x="3718" y="350" as="targetPoint" />
            <Array as="points">
              <mxPoint x="3717" y="399" />
            </Array>
          </mxGeometry>
        </mxCell>
        <mxCell id="-NzjHe6JHwoF-1MMWL6W-25" value="si" style="text;html=1;strokeColor=none;fillColor=none;align=center;verticalAlign=middle;whiteSpace=wrap;rounded=0;" parent="1" vertex="1">
          <mxGeometry x="3500" y="355.5" width="60" height="30" as="geometry" />
        </mxCell>
        <mxCell id="-NzjHe6JHwoF-1MMWL6W-26" value="no" style="text;html=1;strokeColor=none;fillColor=none;align=center;verticalAlign=middle;whiteSpace=wrap;rounded=0;" parent="1" vertex="1">
          <mxGeometry x="3850" y="231" width="60" height="30" as="geometry" />
        </mxCell>
        <mxCell id="-NzjHe6JHwoF-1MMWL6W-27" value="no" style="text;html=1;strokeColor=none;fillColor=none;align=center;verticalAlign=middle;whiteSpace=wrap;rounded=0;" parent="1" vertex="1">
          <mxGeometry x="3714" y="365.5" width="60" height="30" as="geometry" />
        </mxCell>
        <mxCell id="-NzjHe6JHwoF-1MMWL6W-28" value="b &amp;gt; c" style="rhombus;whiteSpace=wrap;html=1;" parent="1" vertex="1">
          <mxGeometry x="3910" y="360.5" width="80" height="80" as="geometry" />
        </mxCell>
        <mxCell id="-NzjHe6JHwoF-1MMWL6W-29" value="" style="endArrow=classic;html=1;rounded=0;exitX=0;exitY=0.5;exitDx=0;exitDy=0;" parent="1" source="-NzjHe6JHwoF-1MMWL6W-28" edge="1">
          <mxGeometry width="50" height="50" relative="1" as="geometry">
            <mxPoint x="3836" y="391" as="sourcePoint" />
            <mxPoint x="3836" y="502" as="targetPoint" />
            <Array as="points">
              <mxPoint x="3836" y="401" />
            </Array>
          </mxGeometry>
        </mxCell>
        <mxCell id="-NzjHe6JHwoF-1MMWL6W-30" value="Escribir b&amp;nbsp;&lt;br&gt;es el mayor" style="shape=parallelogram;perimeter=parallelogramPerimeter;whiteSpace=wrap;html=1;fixedSize=1;" parent="1" vertex="1">
          <mxGeometry x="3780" y="503.5" width="120" height="60" as="geometry" />
        </mxCell>
        <mxCell id="-NzjHe6JHwoF-1MMWL6W-31" value="Escribir c&amp;nbsp;&lt;br&gt;es el mayor" style="shape=parallelogram;perimeter=parallelogramPerimeter;whiteSpace=wrap;html=1;fixedSize=1;" parent="1" vertex="1">
          <mxGeometry x="3969" y="507" width="120" height="60" as="geometry" />
        </mxCell>
        <mxCell id="-NzjHe6JHwoF-1MMWL6W-32" value="" style="endArrow=classic;html=1;rounded=0;entryX=0.5;entryY=0;entryDx=0;entryDy=0;" parent="1" target="-NzjHe6JHwoF-1MMWL6W-31" edge="1">
          <mxGeometry width="50" height="50" relative="1" as="geometry">
            <mxPoint x="3983" y="405" as="sourcePoint" />
            <mxPoint x="4033" y="355" as="targetPoint" />
            <Array as="points">
              <mxPoint x="4032" y="404" />
            </Array>
          </mxGeometry>
        </mxCell>
        <mxCell id="-NzjHe6JHwoF-1MMWL6W-33" value="si" style="text;html=1;strokeColor=none;fillColor=none;align=center;verticalAlign=middle;whiteSpace=wrap;rounded=0;" parent="1" vertex="1">
          <mxGeometry x="3815" y="360.5" width="60" height="30" as="geometry" />
        </mxCell>
        <mxCell id="-NzjHe6JHwoF-1MMWL6W-34" value="no" style="text;html=1;strokeColor=none;fillColor=none;align=center;verticalAlign=middle;whiteSpace=wrap;rounded=0;" parent="1" vertex="1">
          <mxGeometry x="4029" y="370.5" width="60" height="30" as="geometry" />
        </mxCell>
        <mxCell id="-NzjHe6JHwoF-1MMWL6W-35" value="" style="endArrow=classic;html=1;rounded=0;entryX=0.5;entryY=0;entryDx=0;entryDy=0;exitX=1;exitY=0.5;exitDx=0;exitDy=0;" parent="1" source="-NzjHe6JHwoF-1MMWL6W-14" target="-NzjHe6JHwoF-1MMWL6W-28" edge="1">
          <mxGeometry width="50" height="50" relative="1" as="geometry">
            <mxPoint x="3885" y="302" as="sourcePoint" />
            <mxPoint x="3935" y="252" as="targetPoint" />
            <Array as="points">
              <mxPoint x="3950" y="281" />
            </Array>
          </mxGeometry>
        </mxCell>
        <mxCell id="-NzjHe6JHwoF-1MMWL6W-36" value="" style="ellipse;whiteSpace=wrap;html=1;" parent="1" vertex="1">
          <mxGeometry x="3722" y="665" width="120" height="80" as="geometry" />
        </mxCell>
        <mxCell id="-NzjHe6JHwoF-1MMWL6W-37" value="" style="endArrow=classic;html=1;rounded=0;entryX=0;entryY=0.5;entryDx=0;entryDy=0;exitX=0.5;exitY=1;exitDx=0;exitDy=0;" parent="1" source="-NzjHe6JHwoF-1MMWL6W-21" target="-NzjHe6JHwoF-1MMWL6W-36" edge="1">
          <mxGeometry width="50" height="50" relative="1" as="geometry">
            <mxPoint x="3486" y="694" as="sourcePoint" />
            <mxPoint x="3536" y="644" as="targetPoint" />
            <Array as="points">
              <mxPoint x="3525" y="705" />
            </Array>
          </mxGeometry>
        </mxCell>
        <mxCell id="-NzjHe6JHwoF-1MMWL6W-38" value="" style="endArrow=classic;html=1;rounded=0;entryX=0;entryY=0;entryDx=0;entryDy=0;exitX=0.5;exitY=1;exitDx=0;exitDy=0;" parent="1" source="-NzjHe6JHwoF-1MMWL6W-22" target="-NzjHe6JHwoF-1MMWL6W-36" edge="1">
          <mxGeometry width="50" height="50" relative="1" as="geometry">
            <mxPoint x="3639" y="655" as="sourcePoint" />
            <mxPoint x="3689" y="605" as="targetPoint" />
          </mxGeometry>
        </mxCell>
        <mxCell id="-NzjHe6JHwoF-1MMWL6W-39" value="" style="endArrow=classic;html=1;rounded=0;entryX=1;entryY=0;entryDx=0;entryDy=0;exitX=0.5;exitY=1;exitDx=0;exitDy=0;" parent="1" source="-NzjHe6JHwoF-1MMWL6W-30" target="-NzjHe6JHwoF-1MMWL6W-36" edge="1">
          <mxGeometry width="50" height="50" relative="1" as="geometry">
            <mxPoint x="3794" y="834" as="sourcePoint" />
            <mxPoint x="3844" y="784" as="targetPoint" />
          </mxGeometry>
        </mxCell>
        <mxCell id="-NzjHe6JHwoF-1MMWL6W-40" value="" style="endArrow=classic;html=1;rounded=0;entryX=1;entryY=0.5;entryDx=0;entryDy=0;exitX=0.5;exitY=1;exitDx=0;exitDy=0;" parent="1" source="-NzjHe6JHwoF-1MMWL6W-31" target="-NzjHe6JHwoF-1MMWL6W-36" edge="1">
          <mxGeometry width="50" height="50" relative="1" as="geometry">
            <mxPoint x="3899" y="799" as="sourcePoint" />
            <mxPoint x="3949" y="749" as="targetPoint" />
            <Array as="points">
              <mxPoint x="4032" y="705" />
            </Array>
          </mxGeometry>
        </mxCell>
        <mxCell id="-NzjHe6JHwoF-1MMWL6W-41" value="" style="endArrow=classic;html=1;rounded=0;exitX=0.442;exitY=0.988;exitDx=0;exitDy=0;exitPerimeter=0;" parent="1" source="-NzjHe6JHwoF-1MMWL6W-36" edge="1">
          <mxGeometry width="50" height="50" relative="1" as="geometry">
            <mxPoint x="3829" y="862" as="sourcePoint" />
            <mxPoint x="3775" y="791" as="targetPoint" />
          </mxGeometry>
        </mxCell>
        <mxCell id="-NzjHe6JHwoF-1MMWL6W-42" value="" style="rounded=1;whiteSpace=wrap;html=1;" parent="1" vertex="1">
          <mxGeometry x="3722" y="791" width="120" height="60" as="geometry" />
        </mxCell>
        <mxCell id="JcquDcnF6p1oke91eduI-1" value="inicio" style="rounded=1;whiteSpace=wrap;html=1;" parent="1" vertex="1">
          <mxGeometry x="4367" y="0.5" width="120" height="60" as="geometry" />
        </mxCell>
        <mxCell id="JcquDcnF6p1oke91eduI-2" value="Leer nota&lt;br&gt;" style="shape=parallelogram;perimeter=parallelogramPerimeter;whiteSpace=wrap;html=1;fixedSize=1;" parent="1" vertex="1">
          <mxGeometry x="4368" y="96" width="120" height="44" as="geometry" />
        </mxCell>
        <mxCell id="JcquDcnF6p1oke91eduI-3" value="" style="endArrow=classic;html=1;rounded=0;entryX=0.5;entryY=0;entryDx=0;entryDy=0;" parent="1" target="JcquDcnF6p1oke91eduI-2" edge="1">
          <mxGeometry width="50" height="50" relative="1" as="geometry">
            <mxPoint x="4431" y="64" as="sourcePoint" />
            <mxPoint x="4481" y="14" as="targetPoint" />
          </mxGeometry>
        </mxCell>
        <mxCell id="JcquDcnF6p1oke91eduI-4" value="Nota = X" style="rounded=0;whiteSpace=wrap;html=1;" parent="1" vertex="1">
          <mxGeometry x="4368" y="181" width="120" height="50" as="geometry" />
        </mxCell>
        <mxCell id="JcquDcnF6p1oke91eduI-5" value="" style="endArrow=classic;html=1;rounded=0;entryX=0.5;entryY=0;entryDx=0;entryDy=0;exitX=0.5;exitY=1;exitDx=0;exitDy=0;" parent="1" source="JcquDcnF6p1oke91eduI-2" target="JcquDcnF6p1oke91eduI-4" edge="1">
          <mxGeometry width="50" height="50" relative="1" as="geometry">
            <mxPoint x="4235" y="120" as="sourcePoint" />
            <mxPoint x="4285" y="70" as="targetPoint" />
          </mxGeometry>
        </mxCell>
        <mxCell id="JcquDcnF6p1oke91eduI-6" value="X=&amp;gt;3" style="rhombus;whiteSpace=wrap;html=1;" parent="1" vertex="1">
          <mxGeometry x="4388" y="273" width="80" height="80" as="geometry" />
        </mxCell>
        <mxCell id="JcquDcnF6p1oke91eduI-7" value="Escribir&lt;br&gt;&quot;Molt Deficient&quot;" style="shape=parallelogram;perimeter=parallelogramPerimeter;whiteSpace=wrap;html=1;fixedSize=1;" parent="1" vertex="1">
          <mxGeometry x="4221" y="381" width="120" height="60" as="geometry" />
        </mxCell>
        <mxCell id="JcquDcnF6p1oke91eduI-10" value="" style="endArrow=classic;html=1;rounded=0;entryX=0.5;entryY=0;entryDx=0;entryDy=0;exitX=0;exitY=0.5;exitDx=0;exitDy=0;" parent="1" source="JcquDcnF6p1oke91eduI-6" target="JcquDcnF6p1oke91eduI-7" edge="1">
          <mxGeometry width="50" height="50" relative="1" as="geometry">
            <mxPoint x="4277" y="323" as="sourcePoint" />
            <mxPoint x="4327" y="273" as="targetPoint" />
            <Array as="points">
              <mxPoint x="4281" y="313" />
            </Array>
          </mxGeometry>
        </mxCell>
        <mxCell id="JcquDcnF6p1oke91eduI-11" value="" style="endArrow=classic;html=1;rounded=0;entryX=0.5;entryY=0;entryDx=0;entryDy=0;exitX=0.5;exitY=1;exitDx=0;exitDy=0;" parent="1" source="JcquDcnF6p1oke91eduI-4" target="JcquDcnF6p1oke91eduI-6" edge="1">
          <mxGeometry width="50" height="50" relative="1" as="geometry">
            <mxPoint x="4235" y="274" as="sourcePoint" />
            <mxPoint x="4285" y="224" as="targetPoint" />
          </mxGeometry>
        </mxCell>
        <mxCell id="JcquDcnF6p1oke91eduI-13" value="SI" style="text;html=1;strokeColor=none;fillColor=none;align=center;verticalAlign=middle;whiteSpace=wrap;rounded=0;" parent="1" vertex="1">
          <mxGeometry x="4284" y="259" width="60" height="30" as="geometry" />
        </mxCell>
        <mxCell id="JcquDcnF6p1oke91eduI-14" value="NO" style="text;html=1;strokeColor=none;fillColor=none;align=center;verticalAlign=middle;whiteSpace=wrap;rounded=0;" parent="1" vertex="1">
          <mxGeometry x="4515" y="268" width="60" height="30" as="geometry" />
        </mxCell>
        <mxCell id="JcquDcnF6p1oke91eduI-22" value="X=&amp;gt;5" style="rhombus;whiteSpace=wrap;html=1;" parent="1" vertex="1">
          <mxGeometry x="4521" y="368" width="80" height="80" as="geometry" />
        </mxCell>
        <mxCell id="JcquDcnF6p1oke91eduI-23" value="Escribir&lt;br&gt;&quot;Insuficiente&quot;" style="shape=parallelogram;perimeter=parallelogramPerimeter;whiteSpace=wrap;html=1;fixedSize=1;" parent="1" vertex="1">
          <mxGeometry x="4354" y="476" width="120" height="60" as="geometry" />
        </mxCell>
        <mxCell id="JcquDcnF6p1oke91eduI-26" value="" style="endArrow=classic;html=1;rounded=0;entryX=0.5;entryY=0;entryDx=0;entryDy=0;exitX=0;exitY=0.5;exitDx=0;exitDy=0;" parent="1" source="JcquDcnF6p1oke91eduI-22" target="JcquDcnF6p1oke91eduI-23" edge="1">
          <mxGeometry width="50" height="50" relative="1" as="geometry">
            <mxPoint x="4410" y="418" as="sourcePoint" />
            <mxPoint x="4460" y="368" as="targetPoint" />
            <Array as="points">
              <mxPoint x="4414" y="408" />
            </Array>
          </mxGeometry>
        </mxCell>
        <mxCell id="JcquDcnF6p1oke91eduI-27" value="SI" style="text;html=1;strokeColor=none;fillColor=none;align=center;verticalAlign=middle;whiteSpace=wrap;rounded=0;" parent="1" vertex="1">
          <mxGeometry x="4417" y="354" width="60" height="30" as="geometry" />
        </mxCell>
        <mxCell id="JcquDcnF6p1oke91eduI-28" value="NO" style="text;html=1;strokeColor=none;fillColor=none;align=center;verticalAlign=middle;whiteSpace=wrap;rounded=0;" parent="1" vertex="1">
          <mxGeometry x="4648" y="363" width="60" height="30" as="geometry" />
        </mxCell>
        <mxCell id="JcquDcnF6p1oke91eduI-29" value="" style="endArrow=classic;html=1;rounded=0;entryX=0.5;entryY=0;entryDx=0;entryDy=0;exitX=1;exitY=0.5;exitDx=0;exitDy=0;" parent="1" source="JcquDcnF6p1oke91eduI-6" target="JcquDcnF6p1oke91eduI-22" edge="1">
          <mxGeometry width="50" height="50" relative="1" as="geometry">
            <mxPoint x="4564" y="337" as="sourcePoint" />
            <mxPoint x="4614" y="287" as="targetPoint" />
            <Array as="points">
              <mxPoint x="4564" y="313" />
            </Array>
          </mxGeometry>
        </mxCell>
        <mxCell id="JcquDcnF6p1oke91eduI-37" value="X=&amp;gt;6" style="rhombus;whiteSpace=wrap;html=1;" parent="1" vertex="1">
          <mxGeometry x="4654" y="461" width="80" height="80" as="geometry" />
        </mxCell>
        <mxCell id="JcquDcnF6p1oke91eduI-38" value="Escribir&lt;br&gt;&quot;BE&quot;" style="shape=parallelogram;perimeter=parallelogramPerimeter;whiteSpace=wrap;html=1;fixedSize=1;" parent="1" vertex="1">
          <mxGeometry x="4487" y="569" width="120" height="60" as="geometry" />
        </mxCell>
        <mxCell id="JcquDcnF6p1oke91eduI-41" value="" style="endArrow=classic;html=1;rounded=0;entryX=0.5;entryY=0;entryDx=0;entryDy=0;exitX=0;exitY=0.5;exitDx=0;exitDy=0;" parent="1" source="JcquDcnF6p1oke91eduI-37" target="JcquDcnF6p1oke91eduI-38" edge="1">
          <mxGeometry width="50" height="50" relative="1" as="geometry">
            <mxPoint x="4543" y="511" as="sourcePoint" />
            <mxPoint x="4593" y="461" as="targetPoint" />
            <Array as="points">
              <mxPoint x="4547" y="501" />
            </Array>
          </mxGeometry>
        </mxCell>
        <mxCell id="JcquDcnF6p1oke91eduI-42" value="SI" style="text;html=1;strokeColor=none;fillColor=none;align=center;verticalAlign=middle;whiteSpace=wrap;rounded=0;" parent="1" vertex="1">
          <mxGeometry x="4550" y="447" width="60" height="30" as="geometry" />
        </mxCell>
        <mxCell id="JcquDcnF6p1oke91eduI-43" value="NO" style="text;html=1;strokeColor=none;fillColor=none;align=center;verticalAlign=middle;whiteSpace=wrap;rounded=0;" parent="1" vertex="1">
          <mxGeometry x="4781" y="456" width="60" height="30" as="geometry" />
        </mxCell>
        <mxCell id="JcquDcnF6p1oke91eduI-44" value="" style="endArrow=classic;html=1;rounded=0;entryX=0.5;entryY=0;entryDx=0;entryDy=0;exitX=1;exitY=0.5;exitDx=0;exitDy=0;" parent="1" source="JcquDcnF6p1oke91eduI-22" target="JcquDcnF6p1oke91eduI-37" edge="1">
          <mxGeometry width="50" height="50" relative="1" as="geometry">
            <mxPoint x="4333" y="652" as="sourcePoint" />
            <mxPoint x="4383" y="602" as="targetPoint" />
            <Array as="points">
              <mxPoint x="4697" y="408" />
            </Array>
          </mxGeometry>
        </mxCell>
        <mxCell id="JcquDcnF6p1oke91eduI-45" value="X =&amp;gt; 9" style="rhombus;whiteSpace=wrap;html=1;" parent="1" vertex="1">
          <mxGeometry x="4787" y="555" width="80" height="80" as="geometry" />
        </mxCell>
        <mxCell id="JcquDcnF6p1oke91eduI-46" value="Escribir&lt;br&gt;&quot;Notable&quot;" style="shape=parallelogram;perimeter=parallelogramPerimeter;whiteSpace=wrap;html=1;fixedSize=1;" parent="1" vertex="1">
          <mxGeometry x="4620" y="663" width="120" height="60" as="geometry" />
        </mxCell>
        <mxCell id="JcquDcnF6p1oke91eduI-49" value="" style="endArrow=classic;html=1;rounded=0;entryX=0.5;entryY=0;entryDx=0;entryDy=0;exitX=0;exitY=0.5;exitDx=0;exitDy=0;" parent="1" source="JcquDcnF6p1oke91eduI-45" target="JcquDcnF6p1oke91eduI-46" edge="1">
          <mxGeometry width="50" height="50" relative="1" as="geometry">
            <mxPoint x="4676" y="605" as="sourcePoint" />
            <mxPoint x="4726" y="555" as="targetPoint" />
            <Array as="points">
              <mxPoint x="4680" y="595" />
            </Array>
          </mxGeometry>
        </mxCell>
        <mxCell id="JcquDcnF6p1oke91eduI-50" value="SI" style="text;html=1;strokeColor=none;fillColor=none;align=center;verticalAlign=middle;whiteSpace=wrap;rounded=0;" parent="1" vertex="1">
          <mxGeometry x="4683" y="541" width="60" height="30" as="geometry" />
        </mxCell>
        <mxCell id="JcquDcnF6p1oke91eduI-51" value="NO" style="text;html=1;strokeColor=none;fillColor=none;align=center;verticalAlign=middle;whiteSpace=wrap;rounded=0;" parent="1" vertex="1">
          <mxGeometry x="4914" y="550" width="60" height="30" as="geometry" />
        </mxCell>
        <mxCell id="JcquDcnF6p1oke91eduI-52" value="" style="endArrow=classic;html=1;rounded=0;entryX=0.5;entryY=0;entryDx=0;entryDy=0;exitX=1;exitY=0.5;exitDx=0;exitDy=0;" parent="1" source="JcquDcnF6p1oke91eduI-37" target="JcquDcnF6p1oke91eduI-45" edge="1">
          <mxGeometry width="50" height="50" relative="1" as="geometry">
            <mxPoint x="4571" y="799" as="sourcePoint" />
            <mxPoint x="4621" y="749" as="targetPoint" />
            <Array as="points">
              <mxPoint x="4823" y="504" />
            </Array>
          </mxGeometry>
        </mxCell>
        <mxCell id="JcquDcnF6p1oke91eduI-60" value="Escribir&lt;br&gt;&quot;Excelente&quot;" style="shape=parallelogram;perimeter=parallelogramPerimeter;whiteSpace=wrap;html=1;fixedSize=1;" parent="1" vertex="1">
          <mxGeometry x="4900" y="665" width="120" height="60" as="geometry" />
        </mxCell>
        <mxCell id="JcquDcnF6p1oke91eduI-61" value="" style="endArrow=classic;html=1;rounded=0;entryX=0.558;entryY=0;entryDx=0;entryDy=0;entryPerimeter=0;exitX=1;exitY=0.5;exitDx=0;exitDy=0;" parent="1" source="JcquDcnF6p1oke91eduI-45" target="JcquDcnF6p1oke91eduI-60" edge="1">
          <mxGeometry width="50" height="50" relative="1" as="geometry">
            <mxPoint x="4879" y="659" as="sourcePoint" />
            <mxPoint x="4929" y="609" as="targetPoint" />
            <Array as="points">
              <mxPoint x="4967" y="595" />
            </Array>
          </mxGeometry>
        </mxCell>
        <mxCell id="JcquDcnF6p1oke91eduI-62" value="" style="ellipse;whiteSpace=wrap;html=1;" parent="1" vertex="1">
          <mxGeometry x="4624.5" y="812" width="91" height="80" as="geometry" />
        </mxCell>
        <mxCell id="JcquDcnF6p1oke91eduI-63" value="" style="endArrow=classic;html=1;rounded=0;entryX=0;entryY=0.5;entryDx=0;entryDy=0;exitX=0.5;exitY=1;exitDx=0;exitDy=0;" parent="1" source="JcquDcnF6p1oke91eduI-7" target="JcquDcnF6p1oke91eduI-62" edge="1">
          <mxGeometry width="50" height="50" relative="1" as="geometry">
            <mxPoint x="4256" y="680" as="sourcePoint" />
            <mxPoint x="4306" y="630" as="targetPoint" />
            <Array as="points">
              <mxPoint x="4284" y="847" />
            </Array>
          </mxGeometry>
        </mxCell>
        <mxCell id="JcquDcnF6p1oke91eduI-64" value="" style="endArrow=classic;html=1;rounded=0;entryX=0;entryY=0;entryDx=0;entryDy=0;exitX=0.25;exitY=1;exitDx=0;exitDy=0;" parent="1" source="JcquDcnF6p1oke91eduI-23" target="JcquDcnF6p1oke91eduI-62" edge="1">
          <mxGeometry width="50" height="50" relative="1" as="geometry">
            <mxPoint x="4410" y="708" as="sourcePoint" />
            <mxPoint x="4460" y="658" as="targetPoint" />
            <Array as="points">
              <mxPoint x="4389" y="819" />
            </Array>
          </mxGeometry>
        </mxCell>
        <mxCell id="JcquDcnF6p1oke91eduI-66" value="" style="endArrow=classic;html=1;rounded=0;exitX=0.5;exitY=1;exitDx=0;exitDy=0;" parent="1" source="JcquDcnF6p1oke91eduI-38" target="JcquDcnF6p1oke91eduI-62" edge="1">
          <mxGeometry width="50" height="50" relative="1" as="geometry">
            <mxPoint x="4495" y="725" as="sourcePoint" />
            <mxPoint x="4545" y="675" as="targetPoint" />
            <Array as="points">
              <mxPoint x="4550" y="742" />
            </Array>
          </mxGeometry>
        </mxCell>
        <mxCell id="JcquDcnF6p1oke91eduI-67" value="" style="endArrow=classic;html=1;rounded=0;entryX=0.604;entryY=0.013;entryDx=0;entryDy=0;entryPerimeter=0;" parent="1" source="JcquDcnF6p1oke91eduI-46" target="JcquDcnF6p1oke91eduI-62" edge="1">
          <mxGeometry width="50" height="50" relative="1" as="geometry">
            <mxPoint x="4165" y="701" as="sourcePoint" />
            <mxPoint x="4215" y="651" as="targetPoint" />
          </mxGeometry>
        </mxCell>
        <mxCell id="JcquDcnF6p1oke91eduI-68" value="" style="endArrow=classic;html=1;rounded=0;entryX=1;entryY=0.5;entryDx=0;entryDy=0;exitX=0.567;exitY=1;exitDx=0;exitDy=0;exitPerimeter=0;" parent="1" source="JcquDcnF6p1oke91eduI-60" target="JcquDcnF6p1oke91eduI-62" edge="1">
          <mxGeometry width="50" height="50" relative="1" as="geometry">
            <mxPoint x="4851" y="813" as="sourcePoint" />
            <mxPoint x="4901" y="763" as="targetPoint" />
            <Array as="points">
              <mxPoint x="4968" y="852" />
            </Array>
          </mxGeometry>
        </mxCell>
        <mxCell id="JcquDcnF6p1oke91eduI-69" value="Fin" style="rounded=1;whiteSpace=wrap;html=1;" parent="1" vertex="1">
          <mxGeometry x="4610" y="945" width="120" height="60" as="geometry" />
        </mxCell>
        <mxCell id="JcquDcnF6p1oke91eduI-71" value="" style="endArrow=classic;html=1;rounded=0;entryX=0.567;entryY=0.05;entryDx=0;entryDy=0;entryPerimeter=0;exitX=0.5;exitY=1;exitDx=0;exitDy=0;" parent="1" source="JcquDcnF6p1oke91eduI-62" target="JcquDcnF6p1oke91eduI-69" edge="1">
          <mxGeometry width="50" height="50" relative="1" as="geometry">
            <mxPoint x="4536" y="960" as="sourcePoint" />
            <mxPoint x="4586" y="910" as="targetPoint" />
          </mxGeometry>
        </mxCell>
        <mxCell id="cUd5P7rfHZCiO3haZQr_-3" style="edgeStyle=orthogonalEdgeStyle;rounded=0;orthogonalLoop=1;jettySize=auto;html=1;" parent="1" source="cUd5P7rfHZCiO3haZQr_-1" target="cUd5P7rfHZCiO3haZQr_-2" edge="1">
          <mxGeometry relative="1" as="geometry" />
        </mxCell>
        <mxCell id="cUd5P7rfHZCiO3haZQr_-1" value="INICIO" style="rounded=1;whiteSpace=wrap;html=1;" parent="1" vertex="1">
          <mxGeometry x="5362" y="66" width="120" height="60" as="geometry" />
        </mxCell>
        <mxCell id="cUd5P7rfHZCiO3haZQr_-6" style="edgeStyle=orthogonalEdgeStyle;rounded=0;orthogonalLoop=1;jettySize=auto;html=1;exitX=0.5;exitY=1;exitDx=0;exitDy=0;entryX=0.5;entryY=0;entryDx=0;entryDy=0;" parent="1" source="cUd5P7rfHZCiO3haZQr_-2" target="cUd5P7rfHZCiO3haZQr_-5" edge="1">
          <mxGeometry relative="1" as="geometry" />
        </mxCell>
        <mxCell id="cUd5P7rfHZCiO3haZQr_-2" value="Leer &quot;h : m : s&quot;" style="shape=parallelogram;perimeter=parallelogramPerimeter;whiteSpace=wrap;html=1;fixedSize=1;" parent="1" vertex="1">
          <mxGeometry x="5320" y="205" width="196" height="68" as="geometry" />
        </mxCell>
        <mxCell id="cUd5P7rfHZCiO3haZQr_-8" style="edgeStyle=orthogonalEdgeStyle;rounded=0;orthogonalLoop=1;jettySize=auto;html=1;exitX=0.5;exitY=1;exitDx=0;exitDy=0;entryX=0.5;entryY=0;entryDx=0;entryDy=0;" parent="1" source="cUd5P7rfHZCiO3haZQr_-5" target="cUd5P7rfHZCiO3haZQr_-7" edge="1">
          <mxGeometry relative="1" as="geometry" />
        </mxCell>
        <mxCell id="cUd5P7rfHZCiO3haZQr_-5" value="s = s +1" style="rounded=1;whiteSpace=wrap;html=1;" parent="1" vertex="1">
          <mxGeometry x="5358" y="320" width="120" height="60" as="geometry" />
        </mxCell>
        <mxCell id="cUd5P7rfHZCiO3haZQr_-12" style="edgeStyle=orthogonalEdgeStyle;rounded=0;orthogonalLoop=1;jettySize=auto;html=1;" parent="1" source="cUd5P7rfHZCiO3haZQr_-7" target="cUd5P7rfHZCiO3haZQr_-11" edge="1">
          <mxGeometry relative="1" as="geometry" />
        </mxCell>
        <mxCell id="cUd5P7rfHZCiO3haZQr_-15" style="edgeStyle=orthogonalEdgeStyle;rounded=0;orthogonalLoop=1;jettySize=auto;html=1;exitX=1;exitY=0.5;exitDx=0;exitDy=0;" parent="1" source="cUd5P7rfHZCiO3haZQr_-7" target="cUd5P7rfHZCiO3haZQr_-14" edge="1">
          <mxGeometry relative="1" as="geometry" />
        </mxCell>
        <mxCell id="cUd5P7rfHZCiO3haZQr_-7" value="s =&amp;gt; 60" style="rhombus;whiteSpace=wrap;html=1;" parent="1" vertex="1">
          <mxGeometry x="5351.5" y="440" width="133" height="80" as="geometry" />
        </mxCell>
        <mxCell id="cUd5P7rfHZCiO3haZQr_-24" style="edgeStyle=orthogonalEdgeStyle;rounded=0;orthogonalLoop=1;jettySize=auto;html=1;entryX=0.5;entryY=0;entryDx=0;entryDy=0;" parent="1" source="cUd5P7rfHZCiO3haZQr_-11" target="cUd5P7rfHZCiO3haZQr_-19" edge="1">
          <mxGeometry relative="1" as="geometry" />
        </mxCell>
        <mxCell id="cUd5P7rfHZCiO3haZQr_-11" value="m = m + 1" style="rounded=1;whiteSpace=wrap;html=1;" parent="1" vertex="1">
          <mxGeometry x="5228" y="580" width="120" height="43" as="geometry" />
        </mxCell>
        <mxCell id="cUd5P7rfHZCiO3haZQr_-13" value="si" style="text;html=1;strokeColor=none;fillColor=none;align=center;verticalAlign=middle;whiteSpace=wrap;rounded=0;" parent="1" vertex="1">
          <mxGeometry x="5229" y="436" width="60" height="30" as="geometry" />
        </mxCell>
        <mxCell id="cUd5P7rfHZCiO3haZQr_-43" style="edgeStyle=orthogonalEdgeStyle;rounded=0;orthogonalLoop=1;jettySize=auto;html=1;entryX=1;entryY=0.5;entryDx=0;entryDy=0;" parent="1" source="cUd5P7rfHZCiO3haZQr_-14" target="cUd5P7rfHZCiO3haZQr_-39" edge="1">
          <mxGeometry relative="1" as="geometry">
            <mxPoint x="5607" y="1358" as="targetPoint" />
            <Array as="points">
              <mxPoint x="5604" y="993" />
              <mxPoint x="5608" y="993" />
              <mxPoint x="5608" y="1321" />
            </Array>
          </mxGeometry>
        </mxCell>
        <mxCell id="cUd5P7rfHZCiO3haZQr_-14" value="mostrar h : m : s" style="shape=parallelogram;perimeter=parallelogramPerimeter;whiteSpace=wrap;html=1;fixedSize=1;" parent="1" vertex="1">
          <mxGeometry x="5544" y="567" width="120" height="60" as="geometry" />
        </mxCell>
        <mxCell id="cUd5P7rfHZCiO3haZQr_-16" value="no" style="text;html=1;strokeColor=none;fillColor=none;align=center;verticalAlign=middle;whiteSpace=wrap;rounded=0;" parent="1" vertex="1">
          <mxGeometry x="5523" y="441" width="60" height="30" as="geometry" />
        </mxCell>
        <mxCell id="cUd5P7rfHZCiO3haZQr_-17" style="edgeStyle=orthogonalEdgeStyle;rounded=0;orthogonalLoop=1;jettySize=auto;html=1;" parent="1" source="cUd5P7rfHZCiO3haZQr_-19" target="cUd5P7rfHZCiO3haZQr_-20" edge="1">
          <mxGeometry relative="1" as="geometry" />
        </mxCell>
        <mxCell id="cUd5P7rfHZCiO3haZQr_-18" style="edgeStyle=orthogonalEdgeStyle;rounded=0;orthogonalLoop=1;jettySize=auto;html=1;exitX=1;exitY=0.5;exitDx=0;exitDy=0;" parent="1" source="cUd5P7rfHZCiO3haZQr_-19" target="cUd5P7rfHZCiO3haZQr_-22" edge="1">
          <mxGeometry relative="1" as="geometry" />
        </mxCell>
        <mxCell id="cUd5P7rfHZCiO3haZQr_-19" value="m =&amp;gt; 60" style="rhombus;whiteSpace=wrap;html=1;" parent="1" vertex="1">
          <mxGeometry x="5221.5" y="700" width="133" height="80" as="geometry" />
        </mxCell>
        <mxCell id="cUd5P7rfHZCiO3haZQr_-45" style="edgeStyle=orthogonalEdgeStyle;rounded=0;orthogonalLoop=1;jettySize=auto;html=1;entryX=0.5;entryY=0;entryDx=0;entryDy=0;" parent="1" source="cUd5P7rfHZCiO3haZQr_-20" target="cUd5P7rfHZCiO3haZQr_-29" edge="1">
          <mxGeometry relative="1" as="geometry" />
        </mxCell>
        <mxCell id="cUd5P7rfHZCiO3haZQr_-20" value="h= h + 1" style="rounded=1;whiteSpace=wrap;html=1;" parent="1" vertex="1">
          <mxGeometry x="5050.5" y="851" width="120" height="60" as="geometry" />
        </mxCell>
        <mxCell id="cUd5P7rfHZCiO3haZQr_-21" value="si" style="text;html=1;strokeColor=none;fillColor=none;align=center;verticalAlign=middle;whiteSpace=wrap;rounded=0;" parent="1" vertex="1">
          <mxGeometry x="5117" y="700" width="60" height="30" as="geometry" />
        </mxCell>
        <mxCell id="cUd5P7rfHZCiO3haZQr_-46" style="edgeStyle=orthogonalEdgeStyle;rounded=0;orthogonalLoop=1;jettySize=auto;html=1;entryX=1;entryY=0;entryDx=0;entryDy=0;" parent="1" source="cUd5P7rfHZCiO3haZQr_-22" target="cUd5P7rfHZCiO3haZQr_-39" edge="1">
          <mxGeometry relative="1" as="geometry">
            <mxPoint x="5516" y="1281" as="targetPoint" />
            <Array as="points">
              <mxPoint x="5469" y="1066" />
              <mxPoint x="5517" y="1066" />
              <mxPoint x="5517" y="1293" />
            </Array>
          </mxGeometry>
        </mxCell>
        <mxCell id="cUd5P7rfHZCiO3haZQr_-22" value="mostrar h : m : s" style="shape=parallelogram;perimeter=parallelogramPerimeter;whiteSpace=wrap;html=1;fixedSize=1;" parent="1" vertex="1">
          <mxGeometry x="5409" y="791" width="120" height="60" as="geometry" />
        </mxCell>
        <mxCell id="cUd5P7rfHZCiO3haZQr_-23" value="no" style="text;html=1;strokeColor=none;fillColor=none;align=center;verticalAlign=middle;whiteSpace=wrap;rounded=0;" parent="1" vertex="1">
          <mxGeometry x="5348" y="712" width="60" height="30" as="geometry" />
        </mxCell>
        <mxCell id="cUd5P7rfHZCiO3haZQr_-28" style="edgeStyle=orthogonalEdgeStyle;rounded=0;orthogonalLoop=1;jettySize=auto;html=1;exitX=1;exitY=0.5;exitDx=0;exitDy=0;" parent="1" source="cUd5P7rfHZCiO3haZQr_-29" target="cUd5P7rfHZCiO3haZQr_-31" edge="1">
          <mxGeometry relative="1" as="geometry" />
        </mxCell>
        <mxCell id="cUd5P7rfHZCiO3haZQr_-44" style="edgeStyle=orthogonalEdgeStyle;rounded=0;orthogonalLoop=1;jettySize=auto;html=1;exitX=0;exitY=0.5;exitDx=0;exitDy=0;" parent="1" source="cUd5P7rfHZCiO3haZQr_-29" target="cUd5P7rfHZCiO3haZQr_-33" edge="1">
          <mxGeometry relative="1" as="geometry" />
        </mxCell>
        <mxCell id="cUd5P7rfHZCiO3haZQr_-29" value="h=&amp;gt;24" style="rhombus;whiteSpace=wrap;html=1;" parent="1" vertex="1">
          <mxGeometry x="5044" y="977" width="133" height="80" as="geometry" />
        </mxCell>
        <mxCell id="cUd5P7rfHZCiO3haZQr_-30" value="si" style="text;html=1;strokeColor=none;fillColor=none;align=center;verticalAlign=middle;whiteSpace=wrap;rounded=0;" parent="1" vertex="1">
          <mxGeometry x="4902" y="960" width="60" height="30" as="geometry" />
        </mxCell>
        <mxCell id="cUd5P7rfHZCiO3haZQr_-41" style="edgeStyle=orthogonalEdgeStyle;rounded=0;orthogonalLoop=1;jettySize=auto;html=1;entryX=0.5;entryY=0;entryDx=0;entryDy=0;" parent="1" source="cUd5P7rfHZCiO3haZQr_-31" target="cUd5P7rfHZCiO3haZQr_-39" edge="1">
          <mxGeometry relative="1" as="geometry" />
        </mxCell>
        <mxCell id="cUd5P7rfHZCiO3haZQr_-31" value="mostrar h : m : s" style="shape=parallelogram;perimeter=parallelogramPerimeter;whiteSpace=wrap;html=1;fixedSize=1;" parent="1" vertex="1">
          <mxGeometry x="5338" y="1078" width="120" height="60" as="geometry" />
        </mxCell>
        <mxCell id="cUd5P7rfHZCiO3haZQr_-32" value="no" style="text;html=1;strokeColor=none;fillColor=none;align=center;verticalAlign=middle;whiteSpace=wrap;rounded=0;" parent="1" vertex="1">
          <mxGeometry x="5194" y="959" width="60" height="30" as="geometry" />
        </mxCell>
        <mxCell id="cUd5P7rfHZCiO3haZQr_-38" style="edgeStyle=orthogonalEdgeStyle;rounded=0;orthogonalLoop=1;jettySize=auto;html=1;" parent="1" source="cUd5P7rfHZCiO3haZQr_-33" target="cUd5P7rfHZCiO3haZQr_-37" edge="1">
          <mxGeometry relative="1" as="geometry" />
        </mxCell>
        <mxCell id="cUd5P7rfHZCiO3haZQr_-33" value="h =0" style="rounded=0;whiteSpace=wrap;html=1;" parent="1" vertex="1">
          <mxGeometry x="4893" y="1088" width="120" height="60" as="geometry" />
        </mxCell>
        <mxCell id="cUd5P7rfHZCiO3haZQr_-40" style="edgeStyle=orthogonalEdgeStyle;rounded=0;orthogonalLoop=1;jettySize=auto;html=1;entryX=-0.062;entryY=0.6;entryDx=0;entryDy=0;entryPerimeter=0;" parent="1" source="cUd5P7rfHZCiO3haZQr_-37" target="cUd5P7rfHZCiO3haZQr_-39" edge="1">
          <mxGeometry relative="1" as="geometry" />
        </mxCell>
        <mxCell id="cUd5P7rfHZCiO3haZQr_-37" value="mostrar h : m : s" style="shape=parallelogram;perimeter=parallelogramPerimeter;whiteSpace=wrap;html=1;fixedSize=1;" parent="1" vertex="1">
          <mxGeometry x="4893" y="1190" width="120" height="60" as="geometry" />
        </mxCell>
        <mxCell id="cUd5P7rfHZCiO3haZQr_-48" style="edgeStyle=orthogonalEdgeStyle;rounded=0;orthogonalLoop=1;jettySize=auto;html=1;" parent="1" source="cUd5P7rfHZCiO3haZQr_-39" target="cUd5P7rfHZCiO3haZQr_-47" edge="1">
          <mxGeometry relative="1" as="geometry" />
        </mxCell>
        <mxCell id="cUd5P7rfHZCiO3haZQr_-39" value="" style="ellipse;whiteSpace=wrap;html=1;aspect=fixed;" parent="1" vertex="1">
          <mxGeometry x="5358" y="1281" width="80" height="80" as="geometry" />
        </mxCell>
        <mxCell id="cUd5P7rfHZCiO3haZQr_-47" value="Fin" style="rounded=0;whiteSpace=wrap;html=1;" parent="1" vertex="1">
          <mxGeometry x="5338" y="1428" width="120" height="60" as="geometry" />
        </mxCell>
        <mxCell id="cUd5P7rfHZCiO3haZQr_-49" value="Ejercicio 16" style="text;html=1;strokeColor=none;fillColor=none;align=center;verticalAlign=middle;whiteSpace=wrap;rounded=0;" parent="1" vertex="1">
          <mxGeometry x="4214" y="40" width="60" height="30" as="geometry" />
        </mxCell>
        <mxCell id="cUd5P7rfHZCiO3haZQr_-50" value="Ejercicio&lt;br&gt;17" style="text;html=1;strokeColor=none;fillColor=none;align=center;verticalAlign=middle;whiteSpace=wrap;rounded=0;" parent="1" vertex="1">
          <mxGeometry x="5191" y="36" width="60" height="30" as="geometry" />
        </mxCell>
        <mxCell id="G0zUEIA3tYi0aC9qxFxf-71" style="edgeStyle=orthogonalEdgeStyle;rounded=0;orthogonalLoop=1;jettySize=auto;html=1;entryX=0.5;entryY=0;entryDx=0;entryDy=0;" parent="1" source="G0zUEIA3tYi0aC9qxFxf-2" target="G0zUEIA3tYi0aC9qxFxf-3" edge="1">
          <mxGeometry relative="1" as="geometry" />
        </mxCell>
        <mxCell id="G0zUEIA3tYi0aC9qxFxf-2" value="Inicio" style="rounded=1;whiteSpace=wrap;html=1;" parent="1" vertex="1">
          <mxGeometry x="6494" y="27" width="120" height="46" as="geometry" />
        </mxCell>
        <mxCell id="G0zUEIA3tYi0aC9qxFxf-7" style="edgeStyle=orthogonalEdgeStyle;rounded=0;orthogonalLoop=1;jettySize=auto;html=1;" parent="1" source="G0zUEIA3tYi0aC9qxFxf-3" target="G0zUEIA3tYi0aC9qxFxf-6" edge="1">
          <mxGeometry relative="1" as="geometry" />
        </mxCell>
        <mxCell id="G0zUEIA3tYi0aC9qxFxf-3" value="Leer horas trabajadas&lt;br&gt;Leer precio hora" style="shape=parallelogram;perimeter=parallelogramPerimeter;whiteSpace=wrap;html=1;fixedSize=1;" parent="1" vertex="1">
          <mxGeometry x="6447" y="156" width="217" height="60" as="geometry" />
        </mxCell>
        <mxCell id="G0zUEIA3tYi0aC9qxFxf-12" style="edgeStyle=orthogonalEdgeStyle;rounded=0;orthogonalLoop=1;jettySize=auto;html=1;entryX=0.463;entryY=0.019;entryDx=0;entryDy=0;entryPerimeter=0;" parent="1" source="G0zUEIA3tYi0aC9qxFxf-6" target="G0zUEIA3tYi0aC9qxFxf-11" edge="1">
          <mxGeometry relative="1" as="geometry">
            <mxPoint x="6150" y="469" as="targetPoint" />
          </mxGeometry>
        </mxCell>
        <mxCell id="G0zUEIA3tYi0aC9qxFxf-37" style="edgeStyle=orthogonalEdgeStyle;rounded=0;orthogonalLoop=1;jettySize=auto;html=1;entryX=0.5;entryY=0;entryDx=0;entryDy=0;" parent="1" source="G0zUEIA3tYi0aC9qxFxf-6" target="G0zUEIA3tYi0aC9qxFxf-35" edge="1">
          <mxGeometry relative="1" as="geometry" />
        </mxCell>
        <mxCell id="G0zUEIA3tYi0aC9qxFxf-6" value="Horas trabajadas&amp;lt;=35" style="rhombus;whiteSpace=wrap;html=1;" parent="1" vertex="1">
          <mxGeometry x="6428" y="285" width="252" height="173" as="geometry" />
        </mxCell>
        <mxCell id="G0zUEIA3tYi0aC9qxFxf-14" style="edgeStyle=orthogonalEdgeStyle;rounded=0;orthogonalLoop=1;jettySize=auto;html=1;entryX=0.5;entryY=0;entryDx=0;entryDy=0;" parent="1" source="G0zUEIA3tYi0aC9qxFxf-11" target="G0zUEIA3tYi0aC9qxFxf-13" edge="1">
          <mxGeometry relative="1" as="geometry" />
        </mxCell>
        <mxCell id="G0zUEIA3tYi0aC9qxFxf-11" value="Horas trabajadas * precio hora = salario bruto" style="rounded=0;whiteSpace=wrap;html=1;" parent="1" vertex="1">
          <mxGeometry x="6062.75" y="502" width="188.5" height="79" as="geometry" />
        </mxCell>
        <mxCell id="G0zUEIA3tYi0aC9qxFxf-16" style="edgeStyle=orthogonalEdgeStyle;rounded=0;orthogonalLoop=1;jettySize=auto;html=1;exitX=0.5;exitY=1;exitDx=0;exitDy=0;entryX=0.5;entryY=0;entryDx=0;entryDy=0;" parent="1" source="G0zUEIA3tYi0aC9qxFxf-13" target="G0zUEIA3tYi0aC9qxFxf-15" edge="1">
          <mxGeometry relative="1" as="geometry" />
        </mxCell>
        <mxCell id="G0zUEIA3tYi0aC9qxFxf-18" style="edgeStyle=orthogonalEdgeStyle;rounded=0;orthogonalLoop=1;jettySize=auto;html=1;" parent="1" source="G0zUEIA3tYi0aC9qxFxf-13" target="G0zUEIA3tYi0aC9qxFxf-17" edge="1">
          <mxGeometry relative="1" as="geometry">
            <Array as="points">
              <mxPoint x="6157" y="805" />
              <mxPoint x="6264" y="805" />
            </Array>
          </mxGeometry>
        </mxCell>
        <mxCell id="G0zUEIA3tYi0aC9qxFxf-13" value="Salario bruto&amp;lt;= 500" style="rhombus;whiteSpace=wrap;html=1;" parent="1" vertex="1">
          <mxGeometry x="6085.5" y="627" width="143" height="127" as="geometry" />
        </mxCell>
        <mxCell id="G0zUEIA3tYi0aC9qxFxf-15" value="Escribir &quot;El&amp;nbsp; salario bruto es&quot;+ salario bruto +&quot;taxes 0&quot; + &quot;salario neto es&quot;+&lt;br&gt;salario neto" style="shape=parallelogram;perimeter=parallelogramPerimeter;whiteSpace=wrap;html=1;fixedSize=1;" parent="1" vertex="1">
          <mxGeometry x="5789" y="847" width="266" height="77" as="geometry" />
        </mxCell>
        <mxCell id="G0zUEIA3tYi0aC9qxFxf-27" style="edgeStyle=orthogonalEdgeStyle;rounded=0;orthogonalLoop=1;jettySize=auto;html=1;" parent="1" source="G0zUEIA3tYi0aC9qxFxf-17" target="G0zUEIA3tYi0aC9qxFxf-25" edge="1">
          <mxGeometry relative="1" as="geometry" />
        </mxCell>
        <mxCell id="G0zUEIA3tYi0aC9qxFxf-17" value="Salario bruto &amp;lt;=900" style="rhombus;whiteSpace=wrap;html=1;" parent="1" vertex="1">
          <mxGeometry x="6174" y="848" width="179" height="142" as="geometry" />
        </mxCell>
        <mxCell id="G0zUEIA3tYi0aC9qxFxf-23" style="edgeStyle=orthogonalEdgeStyle;rounded=0;orthogonalLoop=1;jettySize=auto;html=1;entryX=0.532;entryY=0.013;entryDx=0;entryDy=0;entryPerimeter=0;" parent="1" source="G0zUEIA3tYi0aC9qxFxf-20" target="G0zUEIA3tYi0aC9qxFxf-22" edge="1">
          <mxGeometry relative="1" as="geometry" />
        </mxCell>
        <mxCell id="G0zUEIA3tYi0aC9qxFxf-20" value="(salario bruto-500) * 0.25= Tasa&lt;br&gt;Salario bruto - Tasa = Salario neto" style="rounded=0;whiteSpace=wrap;html=1;" parent="1" vertex="1">
          <mxGeometry x="6006" y="1015" width="190" height="95" as="geometry" />
        </mxCell>
        <mxCell id="G0zUEIA3tYi0aC9qxFxf-21" value="" style="endArrow=classic;html=1;rounded=0;entryX=0.547;entryY=0.032;entryDx=0;entryDy=0;entryPerimeter=0;exitX=0;exitY=0.5;exitDx=0;exitDy=0;" parent="1" source="G0zUEIA3tYi0aC9qxFxf-17" target="G0zUEIA3tYi0aC9qxFxf-20" edge="1">
          <mxGeometry width="50" height="50" relative="1" as="geometry">
            <mxPoint x="6111" y="875" as="sourcePoint" />
            <mxPoint x="6126" y="938" as="targetPoint" />
            <Array as="points">
              <mxPoint x="6110" y="924" />
            </Array>
          </mxGeometry>
        </mxCell>
        <mxCell id="G0zUEIA3tYi0aC9qxFxf-75" style="edgeStyle=orthogonalEdgeStyle;rounded=0;orthogonalLoop=1;jettySize=auto;html=1;entryX=0;entryY=0;entryDx=0;entryDy=0;" parent="1" source="G0zUEIA3tYi0aC9qxFxf-22" target="G0zUEIA3tYi0aC9qxFxf-72" edge="1">
          <mxGeometry relative="1" as="geometry">
            <mxPoint x="6146" y="1603" as="targetPoint" />
            <Array as="points">
              <mxPoint x="6094" y="1554" />
              <mxPoint x="6496" y="1554" />
              <mxPoint x="6496" y="1603" />
              <mxPoint x="6578" y="1603" />
            </Array>
          </mxGeometry>
        </mxCell>
        <mxCell id="G0zUEIA3tYi0aC9qxFxf-22" value="Escribir &quot;El&amp;nbsp; salario bruto es&quot;+ salario bruto +&quot;taxes&quot; + Tasa + &quot;salario neto es&quot;+&lt;br&gt;salario neto" style="shape=parallelogram;perimeter=parallelogramPerimeter;whiteSpace=wrap;html=1;fixedSize=1;" parent="1" vertex="1">
          <mxGeometry x="5964" y="1190" width="259.5" height="77" as="geometry" />
        </mxCell>
        <mxCell id="G0zUEIA3tYi0aC9qxFxf-30" style="edgeStyle=orthogonalEdgeStyle;rounded=0;orthogonalLoop=1;jettySize=auto;html=1;entryX=0.557;entryY=0.039;entryDx=0;entryDy=0;entryPerimeter=0;" parent="1" source="G0zUEIA3tYi0aC9qxFxf-25" target="G0zUEIA3tYi0aC9qxFxf-29" edge="1">
          <mxGeometry relative="1" as="geometry" />
        </mxCell>
        <mxCell id="G0zUEIA3tYi0aC9qxFxf-25" value="(salario bruto - 900) * 0.45+100= tasa&lt;br&gt;Salario bruto - tasa = Salario neto" style="rounded=0;whiteSpace=wrap;html=1;" parent="1" vertex="1">
          <mxGeometry x="6356" y="1008" width="182" height="105" as="geometry" />
        </mxCell>
        <mxCell id="G0zUEIA3tYi0aC9qxFxf-28" value="los 100 son los impuestos que le quitamos a los 400 euros&amp;nbsp;" style="text;html=1;strokeColor=none;fillColor=none;align=center;verticalAlign=middle;whiteSpace=wrap;rounded=0;" parent="1" vertex="1">
          <mxGeometry x="6562" y="1027" width="119" height="58" as="geometry" />
        </mxCell>
        <mxCell id="G0zUEIA3tYi0aC9qxFxf-76" style="edgeStyle=orthogonalEdgeStyle;rounded=0;orthogonalLoop=1;jettySize=auto;html=1;entryX=0.5;entryY=0;entryDx=0;entryDy=0;" parent="1" source="G0zUEIA3tYi0aC9qxFxf-29" target="G0zUEIA3tYi0aC9qxFxf-72" edge="1">
          <mxGeometry relative="1" as="geometry" />
        </mxCell>
        <mxCell id="G0zUEIA3tYi0aC9qxFxf-29" value="Escribir &quot;El&amp;nbsp; salario bruto es&quot;+ salario bruto +&quot;taxes&quot; + Tasa + &quot;salario neto es&quot;+&lt;br&gt;salario neto" style="shape=parallelogram;perimeter=parallelogramPerimeter;whiteSpace=wrap;html=1;fixedSize=1;" parent="1" vertex="1">
          <mxGeometry x="6303.5" y="1190" width="259.5" height="77" as="geometry" />
        </mxCell>
        <mxCell id="G0zUEIA3tYi0aC9qxFxf-31" value="si" style="text;html=1;strokeColor=none;fillColor=none;align=center;verticalAlign=middle;whiteSpace=wrap;rounded=0;" parent="1" vertex="1">
          <mxGeometry x="5964" y="770" width="60" height="30" as="geometry" />
        </mxCell>
        <mxCell id="G0zUEIA3tYi0aC9qxFxf-32" value="no" style="text;html=1;strokeColor=none;fillColor=none;align=center;verticalAlign=middle;whiteSpace=wrap;rounded=0;" parent="1" vertex="1">
          <mxGeometry x="6229" y="770" width="60" height="30" as="geometry" />
        </mxCell>
        <mxCell id="G0zUEIA3tYi0aC9qxFxf-33" value="si" style="text;html=1;strokeColor=none;fillColor=none;align=center;verticalAlign=middle;whiteSpace=wrap;rounded=0;" parent="1" vertex="1">
          <mxGeometry x="6118" y="889" width="60" height="30" as="geometry" />
        </mxCell>
        <mxCell id="G0zUEIA3tYi0aC9qxFxf-34" value="no" style="text;html=1;strokeColor=none;fillColor=none;align=center;verticalAlign=middle;whiteSpace=wrap;rounded=0;" parent="1" vertex="1">
          <mxGeometry x="6384" y="889" width="60" height="30" as="geometry" />
        </mxCell>
        <mxCell id="G0zUEIA3tYi0aC9qxFxf-66" style="edgeStyle=orthogonalEdgeStyle;rounded=0;orthogonalLoop=1;jettySize=auto;html=1;" parent="1" source="G0zUEIA3tYi0aC9qxFxf-35" target="G0zUEIA3tYi0aC9qxFxf-40" edge="1">
          <mxGeometry relative="1" as="geometry" />
        </mxCell>
        <mxCell id="G0zUEIA3tYi0aC9qxFxf-35" value="horas trabajadas -35 = horas extra&lt;br&gt;precio hora * 1.5= Precio hora extrra&lt;br&gt;(horas extra * Precio hora extra) + (35&amp;nbsp; * precio hora) = salario bruto&lt;br&gt;" style="rounded=0;whiteSpace=wrap;html=1;" parent="1" vertex="1">
          <mxGeometry x="6776" y="490" width="350" height="91" as="geometry" />
        </mxCell>
        <mxCell id="G0zUEIA3tYi0aC9qxFxf-38" value="si" style="text;html=1;strokeColor=none;fillColor=none;align=center;verticalAlign=middle;whiteSpace=wrap;rounded=0;" parent="1" vertex="1">
          <mxGeometry x="6289" y="296" width="60" height="30" as="geometry" />
        </mxCell>
        <mxCell id="G0zUEIA3tYi0aC9qxFxf-39" value="no" style="text;html=1;strokeColor=none;fillColor=none;align=center;verticalAlign=middle;whiteSpace=wrap;rounded=0;" parent="1" vertex="1">
          <mxGeometry x="6716" y="302" width="60" height="30" as="geometry" />
        </mxCell>
        <mxCell id="G0zUEIA3tYi0aC9qxFxf-67" style="edgeStyle=orthogonalEdgeStyle;rounded=0;orthogonalLoop=1;jettySize=auto;html=1;entryX=0.5;entryY=0;entryDx=0;entryDy=0;" parent="1" source="G0zUEIA3tYi0aC9qxFxf-40" target="G0zUEIA3tYi0aC9qxFxf-54" edge="1">
          <mxGeometry relative="1" as="geometry" />
        </mxCell>
        <mxCell id="G0zUEIA3tYi0aC9qxFxf-68" style="edgeStyle=orthogonalEdgeStyle;rounded=0;orthogonalLoop=1;jettySize=auto;html=1;entryX=0.5;entryY=0;entryDx=0;entryDy=0;" parent="1" source="G0zUEIA3tYi0aC9qxFxf-40" target="G0zUEIA3tYi0aC9qxFxf-56" edge="1">
          <mxGeometry relative="1" as="geometry" />
        </mxCell>
        <mxCell id="G0zUEIA3tYi0aC9qxFxf-40" value="Salario bruto&amp;lt;= 500" style="rhombus;whiteSpace=wrap;html=1;" parent="1" vertex="1">
          <mxGeometry x="6923" y="651" width="143" height="91" as="geometry" />
        </mxCell>
        <mxCell id="G0zUEIA3tYi0aC9qxFxf-54" value="Escribir &quot;El&amp;nbsp; salario bruto es&quot;+ salario bruto +&quot;taxes 0&quot; + &quot;salario neto es&quot;+&lt;br&gt;salario neto" style="shape=parallelogram;perimeter=parallelogramPerimeter;whiteSpace=wrap;html=1;fixedSize=1;" parent="1" vertex="1">
          <mxGeometry x="6669" y="826" width="266" height="77" as="geometry" />
        </mxCell>
        <mxCell id="G0zUEIA3tYi0aC9qxFxf-55" style="edgeStyle=orthogonalEdgeStyle;rounded=0;orthogonalLoop=1;jettySize=auto;html=1;" parent="1" source="G0zUEIA3tYi0aC9qxFxf-56" target="G0zUEIA3tYi0aC9qxFxf-62" edge="1">
          <mxGeometry relative="1" as="geometry" />
        </mxCell>
        <mxCell id="G0zUEIA3tYi0aC9qxFxf-56" value="Salario bruto &amp;lt;=900" style="rhombus;whiteSpace=wrap;html=1;" parent="1" vertex="1">
          <mxGeometry x="7054" y="827" width="179" height="142" as="geometry" />
        </mxCell>
        <mxCell id="G0zUEIA3tYi0aC9qxFxf-57" style="edgeStyle=orthogonalEdgeStyle;rounded=0;orthogonalLoop=1;jettySize=auto;html=1;entryX=0.532;entryY=0.013;entryDx=0;entryDy=0;entryPerimeter=0;" parent="1" source="G0zUEIA3tYi0aC9qxFxf-58" target="G0zUEIA3tYi0aC9qxFxf-60" edge="1">
          <mxGeometry relative="1" as="geometry" />
        </mxCell>
        <mxCell id="G0zUEIA3tYi0aC9qxFxf-58" value="(salario bruto-500) * 0.25= Tasa&lt;br&gt;Salario bruto - Tasa = Salario neto" style="rounded=0;whiteSpace=wrap;html=1;" parent="1" vertex="1">
          <mxGeometry x="6886" y="994" width="190" height="95" as="geometry" />
        </mxCell>
        <mxCell id="G0zUEIA3tYi0aC9qxFxf-59" value="" style="endArrow=classic;html=1;rounded=0;entryX=0.547;entryY=0.032;entryDx=0;entryDy=0;entryPerimeter=0;exitX=0;exitY=0.5;exitDx=0;exitDy=0;" parent="1" source="G0zUEIA3tYi0aC9qxFxf-56" target="G0zUEIA3tYi0aC9qxFxf-58" edge="1">
          <mxGeometry width="50" height="50" relative="1" as="geometry">
            <mxPoint x="6991" y="854" as="sourcePoint" />
            <mxPoint x="7006" y="917" as="targetPoint" />
            <Array as="points">
              <mxPoint x="6990" y="903" />
            </Array>
          </mxGeometry>
        </mxCell>
        <mxCell id="G0zUEIA3tYi0aC9qxFxf-77" style="edgeStyle=orthogonalEdgeStyle;rounded=0;orthogonalLoop=1;jettySize=auto;html=1;entryX=1;entryY=0;entryDx=0;entryDy=0;" parent="1" source="G0zUEIA3tYi0aC9qxFxf-60" target="G0zUEIA3tYi0aC9qxFxf-72" edge="1">
          <mxGeometry relative="1" as="geometry" />
        </mxCell>
        <mxCell id="G0zUEIA3tYi0aC9qxFxf-60" value="Escribir &quot;El&amp;nbsp; salario bruto es&quot;+ salario bruto +&quot;taxes&quot; + Tasa + &quot;salario neto es&quot;+&lt;br&gt;salario neto" style="shape=parallelogram;perimeter=parallelogramPerimeter;whiteSpace=wrap;html=1;fixedSize=1;" parent="1" vertex="1">
          <mxGeometry x="6844" y="1169" width="259.5" height="77" as="geometry" />
        </mxCell>
        <mxCell id="G0zUEIA3tYi0aC9qxFxf-61" style="edgeStyle=orthogonalEdgeStyle;rounded=0;orthogonalLoop=1;jettySize=auto;html=1;entryX=0.557;entryY=0.039;entryDx=0;entryDy=0;entryPerimeter=0;" parent="1" source="G0zUEIA3tYi0aC9qxFxf-62" target="G0zUEIA3tYi0aC9qxFxf-63" edge="1">
          <mxGeometry relative="1" as="geometry" />
        </mxCell>
        <mxCell id="G0zUEIA3tYi0aC9qxFxf-62" value="(salario bruto - 900) * 0.45+100= tasa&lt;br&gt;Salario bruto - tasa = Salario neto" style="rounded=0;whiteSpace=wrap;html=1;" parent="1" vertex="1">
          <mxGeometry x="7236" y="987" width="182" height="105" as="geometry" />
        </mxCell>
        <mxCell id="G0zUEIA3tYi0aC9qxFxf-78" style="edgeStyle=orthogonalEdgeStyle;rounded=0;orthogonalLoop=1;jettySize=auto;html=1;entryX=1;entryY=0.5;entryDx=0;entryDy=0;" parent="1" source="G0zUEIA3tYi0aC9qxFxf-63" target="G0zUEIA3tYi0aC9qxFxf-72" edge="1">
          <mxGeometry relative="1" as="geometry">
            <mxPoint x="7160.999999999998" y="1806" as="targetPoint" />
            <Array as="points">
              <mxPoint x="7238" y="1659" />
              <mxPoint x="6680" y="1659" />
            </Array>
          </mxGeometry>
        </mxCell>
        <mxCell id="G0zUEIA3tYi0aC9qxFxf-79" value="Text" style="edgeLabel;html=1;align=center;verticalAlign=middle;resizable=0;points=[];" parent="G0zUEIA3tYi0aC9qxFxf-78" vertex="1" connectable="0">
          <mxGeometry x="0.1481" relative="1" as="geometry">
            <mxPoint as="offset" />
          </mxGeometry>
        </mxCell>
        <mxCell id="G0zUEIA3tYi0aC9qxFxf-63" value="Escribir &quot;El&amp;nbsp; salario bruto es&quot;+ salario bruto +&quot;taxes&quot; + Tasa + &quot;salario neto es&quot;+&lt;br&gt;salario neto" style="shape=parallelogram;perimeter=parallelogramPerimeter;whiteSpace=wrap;html=1;fixedSize=1;" parent="1" vertex="1">
          <mxGeometry x="7183.5" y="1169" width="259.5" height="77" as="geometry" />
        </mxCell>
        <mxCell id="G0zUEIA3tYi0aC9qxFxf-64" value="si" style="text;html=1;strokeColor=none;fillColor=none;align=center;verticalAlign=middle;whiteSpace=wrap;rounded=0;" parent="1" vertex="1">
          <mxGeometry x="6998" y="868" width="60" height="30" as="geometry" />
        </mxCell>
        <mxCell id="G0zUEIA3tYi0aC9qxFxf-65" value="no" style="text;html=1;strokeColor=none;fillColor=none;align=center;verticalAlign=middle;whiteSpace=wrap;rounded=0;" parent="1" vertex="1">
          <mxGeometry x="7264" y="868" width="60" height="30" as="geometry" />
        </mxCell>
        <mxCell id="G0zUEIA3tYi0aC9qxFxf-69" value="si" style="text;html=1;strokeColor=none;fillColor=none;align=center;verticalAlign=middle;whiteSpace=wrap;rounded=0;" parent="1" vertex="1">
          <mxGeometry x="6839" y="740" width="60" height="30" as="geometry" />
        </mxCell>
        <mxCell id="G0zUEIA3tYi0aC9qxFxf-70" value="no" style="text;html=1;strokeColor=none;fillColor=none;align=center;verticalAlign=middle;whiteSpace=wrap;rounded=0;" parent="1" vertex="1">
          <mxGeometry x="7091" y="745" width="60" height="30" as="geometry" />
        </mxCell>
        <mxCell id="G0zUEIA3tYi0aC9qxFxf-81" style="edgeStyle=orthogonalEdgeStyle;rounded=0;orthogonalLoop=1;jettySize=auto;html=1;" parent="1" source="G0zUEIA3tYi0aC9qxFxf-72" target="G0zUEIA3tYi0aC9qxFxf-80" edge="1">
          <mxGeometry relative="1" as="geometry" />
        </mxCell>
        <mxCell id="G0zUEIA3tYi0aC9qxFxf-72" value="" style="ellipse;whiteSpace=wrap;html=1;" parent="1" vertex="1">
          <mxGeometry x="6560" y="1610" width="120" height="80" as="geometry" />
        </mxCell>
        <mxCell id="G0zUEIA3tYi0aC9qxFxf-74" value="" style="endArrow=classic;html=1;rounded=0;exitX=0.429;exitY=0.994;exitDx=0;exitDy=0;exitPerimeter=0;entryX=0;entryY=0.5;entryDx=0;entryDy=0;" parent="1" source="G0zUEIA3tYi0aC9qxFxf-15" target="G0zUEIA3tYi0aC9qxFxf-72" edge="1">
          <mxGeometry width="50" height="50" relative="1" as="geometry">
            <mxPoint x="5887" y="1534" as="sourcePoint" />
            <mxPoint x="5894" y="1939" as="targetPoint" />
            <Array as="points">
              <mxPoint x="5901" y="1650" />
            </Array>
          </mxGeometry>
        </mxCell>
        <mxCell id="G0zUEIA3tYi0aC9qxFxf-80" value="Fin" style="rounded=1;whiteSpace=wrap;html=1;" parent="1" vertex="1">
          <mxGeometry x="6560" y="1792" width="120" height="60" as="geometry" />
        </mxCell>
        <mxCell id="wafDKg2fU_h9L7rUCq5o-1" value="Ejercicio 18" style="text;html=1;strokeColor=none;fillColor=none;align=center;verticalAlign=middle;whiteSpace=wrap;rounded=0;" vertex="1" parent="1">
          <mxGeometry x="6356" y="26.5" width="60" height="30" as="geometry" />
        </mxCell>
      </root>
    </mxGraphModel>
  </diagram>
  <diagram id="YOS_yxSMZ6BGEFy3didj" name="PÃ¡gina-2">
    <mxGraphModel dx="1434" dy="836" grid="1" gridSize="10" guides="1" tooltips="1" connect="1" arrows="1" fold="1" page="1" pageScale="1" pageWidth="827" pageHeight="1169" math="0" shadow="0">
      <root>
        <mxCell id="0" />
        <mxCell id="1" parent="0" />
        <mxCell id="beYVTZJ7cPrH3MjdH00O-1" value="" style="rounded=0;whiteSpace=wrap;html=1;" vertex="1" parent="1">
          <mxGeometry x="40" y="20" width="120" height="60" as="geometry" />
        </mxCell>
        <mxCell id="beYVTZJ7cPrH3MjdH00O-2" value="Text" style="text;html=1;align=center;verticalAlign=middle;resizable=0;points=[];autosize=1;strokeColor=none;fillColor=none;" vertex="1" parent="1">
          <mxGeometry x="515" y="1138" width="50" height="30" as="geometry" />
        </mxCell>
      </root>
    </mxGraphModel>
  </diagram>
</mxfile>
